<?xml version="1.0" encoding="UTF-8"?><svg id="Layer_1" xmlns="http://www.w3.org/2000/svg" viewBox="0 0 549.29 560"><defs><style>.cls-1{fill:#fff;}.cls-1,.cls-2{stroke-linejoin:round;}.cls-1,.cls-2,.cls-3{stroke:#000;}.cls-1,.cls-3{stroke-width:15px;}.cls-2{stroke-linecap:round;stroke-width:6px;}.cls-2,.cls-3{fill:none;}.cls-3{stroke-miterlimit:10;}</style></defs><path d="m412.6,437.43c-13,0-24.84-6.1-34.24-17.65-8.19-10.07-12.26-21.47-13.33-28.78l13.85-2.04c1.71,11.64,13.72,34.47,33.72,34.47,8.66,0,14.74-1.91,18.09-5.67,5.64-6.34,4.24-18.29,3.11-27.89-.41-3.49-.8-6.79-.8-9.59-.02-13.71-15.64-252.35-16.64-261.35-.04-.36-.09-.76-.15-1.2-.74-5.89-2.28-18.14,5.96-27.48,5.96-6.75,15.59-10.17,28.64-10.17,33.49,0,45.43,30.2,45.43,58.46h-14c0-13.37-3.06-44.46-31.43-44.46-6.09,0-14.18.94-18.15,5.44-4.06,4.6-3.13,12.04-2.57,16.48.06.51.12.98.17,1.4,1,9.05,16.71,249.08,16.72,262.88,0,1.99.34,4.9.71,7.97,1.38,11.73,3.27,27.79-6.55,38.83-6.12,6.88-15.72,10.36-28.55,10.36Z"/><path d="m178.26,390.61c-.17-3.8-.54-6.8-.74-8.42-.12-.94-.17-1.37-.17-1.91-.02-13.72-15.64-252.36-16.64-261.35-.04-.36-.09-.76-.15-1.2-.74-5.89-2.28-18.14,5.96-27.48,5.96-6.75,15.59-10.17,28.64-10.17l-3.24,12c-6.09,0-10.95,2.94-14.91,7.44-4.06,4.6-3.13,12.04-2.57,16.48.06.51.12.98.17,1.4,1,8.98,16.48,245.68,16.72,262.55.02.14.04.33.07.55.21,1.68.64,5.17.83,9.52l-13.99.62Zm13.09-10.47s0,.07,0,.1c0-.03,0-.06,0-.1Z"/><rect x="191.94" y="80.07" width="258.88" height="12"/><path d="m489.24,145.53h-64.24c-3.87,0-7-2.46-7-5.5s3.13-5.5,7-5.5h64.24c3.87,0,7,2.46,7,5.5s-3.13,5.5-7,5.5Z"/><path d="m412.6,437.43h-255.64c-3.87,0-7-3.13-7-7s3.13-7,7-7h255.64c3.87,0,7,3.13,7,7s-3.13,7-7,7Z"/><g><path d="m333.09,377.84h-99.9c-7.55,0-14.1-5.86-14.6-13.05l-16.65-240.25c-.5-7.2,5.24-13.05,12.79-13.05h61.91c7.55,0,14.1,5.86,14.6,13.05l1.34,19.41c.29,4.17,4.08,7.56,8.45,7.56h91.15c7.55,0,14.1,5.86,14.6,13.05l12.92,186.49c.5,7.2-5.24,13.05-12.79,13.05h-69.63c-.11.99.07,2.86.18,4.06.31,3.35.61,6.51-1.18,8.39-.81.85-1.91,1.29-3.19,1.29ZM215.11,116.98c-4.37,0-7.69,3.39-7.4,7.56l16.65,240.25c.29,4.17,4.08,7.56,8.45,7.56h99.08c.11-.99-.07-2.86-.18-4.06-.32-3.35-.61-6.51,1.18-8.39.81-.85,1.91-1.29,3.19-1.29h70.45c4.37,0,7.69-3.39,7.4-7.56l-12.92-186.49c-.29-4.17-4.08-7.56-8.45-7.56h-91.15c-7.55,0-14.1-5.86-14.6-13.05l-1.34-19.41c-.29-4.17-4.08-7.56-8.45-7.56h-61.91Z"/><path d="m385.29,179.37h-156.46c-2.39,0-4.45-1.85-4.61-4.12s1.65-4.12,4.04-4.12h156.46c2.39,0,4.45,1.85,4.61,4.12s-1.65,4.12-4.04,4.12Z"/><g><path d="m386.36,194.84h-156.46c-1.39,0-2.6-1.08-2.69-2.4s.96-2.4,2.36-2.4h156.46c1.39,0,2.6,1.08,2.69,2.4s-.96,2.4-2.36,2.4Z"/><path d="m387.31,208.58h-156.46c-1.39,0-2.6-1.08-2.69-2.4s.96-2.4,2.36-2.4h156.46c1.39,0,2.6,1.08,2.69,2.4s-.96,2.4-2.36,2.4Z"/><path d="m388.27,222.32h-156.46c-1.39,0-2.6-1.08-2.69-2.4s.96-2.4,2.36-2.4h156.46c1.39,0,2.6,1.08,2.69,2.4s-.96,2.4-2.36,2.4Z"/><path d="m389.22,236.06h-156.46c-1.39,0-2.6-1.08-2.69-2.4s.96-2.4,2.36-2.4h156.46c1.39,0,2.6,1.08,2.69,2.4s-.96,2.4-2.36,2.4Z"/></g><path d="m390.53,254.97h-156.46c-2.39,0-4.45-1.85-4.61-4.12s1.65-4.12,4.04-4.12h156.46c2.39,0,4.45,1.85,4.61,4.12s-1.65,4.12-4.04,4.12Z"/></g><g><line class="cls-3" x1="104.37" y1="154.04" x2="104.37" y2="53.76"/><line class="cls-3" x1="146.37" y1="154.04" x2="146.37" y2="53.76"/></g><path d="m156.96,437.43c-15.33,0-25.81-3.7-32.02-11.31-8.64-10.57-10.97-24.95-6.23-38.45l13.21,4.63c-3.11,8.87-1.67,18.2,3.86,24.96,3.34,4.09,10.47,6.17,21.18,6.17v14Z"/><path d="m371.95,396.98H125.31c-3.87,0-7-3.13-7-7s3.13-7,7-7h246.64c3.87,0,7,3.13,7,7s-3.13,7-7,7Z"/><polygon class="cls-1" points="65.09 154.04 185.66 154.04 207.66 433.69 43.09 433.69 65.09 154.04"/><polygon class="cls-1" points="269.25 273.19 269.25 215.75 244.04 215.75 244.04 253.82 198.43 217.98 75.49 313.66 86.63 329.61 101.38 317.26 101.38 433.69 138.76 433.69 138.76 338.69 185.23 338.69 185.23 433.69 294.97 433.69 294.97 317.26 309.72 329.61 320.86 313.66 269.25 273.19"/><rect class="cls-1" x="212.32" y="326.69" width="61.04" height="53.45"/><line class="cls-2" x1="306.78" y1="121.45" x2="394.57" y2="122.26"/></svg>