<?xml version="1.0" encoding="UTF-8"?><svg xmlns="http://www.w3.org/2000/svg" xmlns:xlink="http://www.w3.org/1999/xlink" viewBox="0 0 4189 218"><defs><style>.cls-1,.cls-2{fill:#fff;}.cls-2,.cls-3{stroke-width:6.98px;}.cls-2,.cls-3,.cls-4{stroke:#000;}.cls-2,.cls-4{stroke-linejoin:round;}.cls-5,.cls-6{fill:#587594;}.cls-7{isolation:isolate;}.cls-8{fill:#896da2;}.cls-9{opacity:.63;}.cls-3{stroke-miterlimit:10;}.cls-3,.cls-4{fill:none;}.cls-6,.cls-10{opacity:.42;}.cls-6,.cls-10,.cls-11{mix-blend-mode:multiply;}.cls-12,.cls-11{fill:#759ac1;}.cls-13{fill:#272727;}.cls-14{fill:#d15050;}.cls-4{stroke-linecap:round;stroke-width:2.79px;}.cls-15{fill:#3074b1;}.cls-11{opacity:.19;}</style><symbol id="New_Symbol" viewBox="0 0 45 45"><g><rect class="cls-1" x=".5" y=".5" width="44" height="44"/><path d="m44,1v43H1V1h43m1-1H0v45h45V0h0Z"/></g></symbol></defs><g class="cls-7"><g id="Layer_1" class="cls-9"><use width="45" height="45" transform="translate(1536.79 224.34) rotate(-180) scale(.95 .72)" xlink:href="#New_Symbol"/><g class="cls-10"><rect class="cls-12" x="2773.88" y="57.02" width="110.56" height="83.66"/><g><rect class="cls-13" x="2764.83" y="-44.61" width="133.33" height="100.9"/><path d="m2765.41,55.85h132.18V-44.17h-132.18V55.85m-1.16.88V-45.05h134.49V56.73h-134.49Z"/></g></g><g class="cls-10"><g><g><rect class="cls-5" x="2013.9" y="-75.55" width="310.4" height="234.89"/><path class="cls-5" d="m2015.25,158.32h307.7V-74.53h-307.7v232.85m-2.7,2.04V-76.57h313.1v236.93h-313.1Z"/></g><g><rect class="cls-5" x="3872.09" y="154.88" width="312.18" height="236.23"/><path class="cls-5" d="m3873.45,390.09h309.46v-234.18h-309.46v234.18m-2.71,2.05v-238.29h314.89v238.29h-314.89Z"/></g><g><rect class="cls-5" x="3872.09" y="154.88" width="312.18" height="236.23"/><path class="cls-5" d="m3873.45,390.09h309.46v-234.18h-309.46v234.18m-2.71,2.05v-238.29h314.89v238.29h-314.89Z"/></g></g></g><g class="cls-10"><g><rect class="cls-12" x="2054.24" y="54.87" width="303.04" height="229.32"/><path class="cls-12" d="m2055.55,283.19h300.4V55.87h-300.4v227.32m-2.64,1.99V53.87h305.67v231.31h-305.67Z"/></g><g><rect class="cls-12" x="1796.03" y="-144.53" width="219.61" height="166.19"/><path class="cls-12" d="m1796.99,20.94h217.71v-164.74h-217.71V20.94m-1.91,1.45v-167.63h221.52V22.39h-221.52Z"/></g><g><rect class="cls-12" x="2563.68" y="27.42" width="257.76" height="195.06"/><path class="cls-12" d="m2564.8,221.63h255.52V28.27h-255.52v193.36m-2.24,1.7V26.57h260v196.75h-260Z"/></g><g><rect class="cls-12" x="1351.31" y="209.07" width="191.44" height="144.87"/><path class="cls-12" d="m1352.14,353.31h189.78v-143.61h-189.78v143.61m-1.66,1.26v-146.13h193.11v146.13h-193.11Z"/></g><g><rect class="cls-12" x="1170.89" y="26.89" width="131.12" height="99.22"/><path class="cls-12" d="m1171.46,125.68h129.98V27.32h-129.98v98.36m-1.14.86V26.46h132.26v100.08h-132.26Z"/></g><g><rect class="cls-12" x="942.16" y="178.74" width="270.91" height="205.01"/><path class="cls-12" d="m943.34,382.86h268.56v-203.23h-268.56v203.23m-2.36,1.78v-206.79h273.27v206.79h-273.27Z"/></g><g><rect class="cls-12" x="1543.54" y="59.36" width="74.07" height="56.05"/><path class="cls-12" d="m1543.86,115.16h73.42v-55.56h-73.42v55.56m-.64.49v-56.53h74.71v56.53h-74.71Z"/></g></g><g class="cls-10"><g><g><rect class="cls-14" x="2622.54" y="108.76" width="314.38" height="237.9"/><path class="cls-14" d="m2623.91,345.63h311.65V109.79h-311.65v235.84m-2.73,2.07V107.72h317.12v239.97h-317.12Z"/></g><g><rect class="cls-14" x="2426.43" y="-67.12" width="232.95" height="176.28"/><path class="cls-14" d="m2427.44,108.39h230.92V-66.35h-230.92V108.39m-2.03,1.53V-67.88h234.97V109.93h-234.97Z"/></g><g><rect class="cls-14" x="3223.77" y="-38.43" width="228.07" height="172.59"/><path class="cls-14" d="m3224.76,133.41h226.08V-37.68h-226.08v171.08m-1.98,1.5V-39.18h230.05v174.09h-230.05Z"/></g><g><rect class="cls-14" x="3063.45" y="145.19" width="61" height="46.16"/><path class="cls-14" d="m3063.72,191.15h60.47v-45.76h-60.47v45.76m-.53.4v-46.56h61.53v46.56h-61.53Z"/></g><g><rect class="cls-14" x="2108.84" y="118.75" width="153.9" height="116.46"/><path class="cls-14" d="m2109.51,234.71h152.56v-115.45h-152.56v115.45m-1.34,1.01v-117.48h155.24v117.48h-155.24Z"/></g><g><rect class="cls-14" x="2419.42" y="191.04" width="172.07" height="130.21"/><path class="cls-14" d="m2420.17,320.69h170.57v-129.08h-170.57v129.08m-1.5,1.13v-131.34h173.57v131.34h-173.57Z"/></g><g><polygon class="cls-14" points="3645.15 237.35 2730.2 -146.95 2516.57 -146.95 3431.51 237.35 3645.15 237.35"/><path class="cls-14" d="m2517.49-147.65h211.78l914.95,385.7h-211.78l-914.95-385.7m-1.86,1.41l914.95,382.89h215.49l-914.95-382.89h-215.49Z"/></g></g></g><g class="cls-10"><g><g><rect class="cls-14" x="1517.2" y="98.04" width="232.95" height="176.28"/><path class="cls-14" d="m1518.21,273.55h230.92V98.81h-230.92v174.75m-2.03,1.53V97.27h234.97v177.81h-234.97Z"/></g><g><polygon class="cls-14" points="2542.61 126.73 1627.66 -246.65 1399.59 -246.65 2314.54 126.73 2542.61 126.73"/><path class="cls-14" d="m1400.58-247.4h226.08l914.95,374.88h-226.08l-914.95-374.88m-1.98,1.5l914.95,371.88h230.05l-914.95-371.88h-230.05Z"/></g><g><rect class="cls-14" x="1607.34" y="-143.46" width="213.64" height="161.67"/><path class="cls-14" d="m1608.27,17.51h211.78v-160.26h-211.78V17.51m-1.86,1.41v-163.07h215.49V18.91h-215.49Z"/></g></g></g><g class="cls-10"><g><g><rect class="cls-15" x="1515.63" y="151.76" width="146.97" height="111.22"/><path class="cls-15" d="m1516.27,262.49h145.69v-110.25h-145.69v110.25m-1.28.97v-112.18h148.25v112.18h-148.25Z"/></g><g><rect class="cls-15" x="1746.62" y="-8.11" width="128.84" height="97.5"/><path class="cls-15" d="m1747.18,88.97h127.72V-7.68h-127.72v96.65m-1.12.85V-8.53h129.96v98.34h-129.96Z"/></g><g><rect class="cls-15" x="1864.23" y="99.15" width="131.95" height="99.85"/><path class="cls-15" d="m1864.8,198.57h130.8v-98.98h-130.8v98.98m-1.15.87v-100.72h133.09v100.72h-133.09Z"/></g><g><rect class="cls-15" x="1982.44" y="43.57" width="276.44" height="209.19"/><path class="cls-15" d="m1983.64,251.86h274.04V44.48h-274.04v207.38m-2.4,1.82V42.66h278.85v211.01h-278.85Z"/></g><g><rect class="cls-15" x="2255.59" y="14.49" width="223.58" height="169.19"/><path class="cls-15" d="m2256.56,182.95h221.63V15.23h-221.63v167.72m-1.94,1.47V13.76h225.52v170.66h-225.52Z"/></g><g><rect class="cls-15" x="3454.96" y="71.73" width="61.8" height="46.77"/><path class="cls-15" d="m3455.23,118.3h61.27v-46.36h-61.27v46.36m-.54.41v-47.18h62.34v47.18h-62.34Z"/></g><g><rect class="cls-15" x="2050.82" y="-84.77" width="206.6" height="156.34"/><path class="cls-15" d="m2051.72,70.88h204.8V-84.09h-204.8V70.88m-1.8,1.36V-85.45h208.39V72.24h-208.39Z"/></g><g><polygon class="cls-15" points="3032.42 234.24 2117.48 -214.86 1989.48 -214.86 2904.43 234.24 3032.42 234.24"/><path class="cls-15" d="m1990.04-215.28h126.89l914.95,449.94h-126.89l-914.95-449.94m-1.11.84l914.95,448.26h129.11l-914.95-448.26h-129.11Z"/></g><g><rect class="cls-15" x="1786.62" y="10.23" width="164.94" height="124.82"/><path class="cls-15" d="m1787.34,134.51h163.51V10.78h-163.51v123.73m-1.43,1.09V9.69h166.38v125.9h-166.38Z"/></g><g><polygon class="cls-15" points="2931.51 228.49 2016.56 -119.25 1754.62 -119.25 2669.57 228.49 2931.51 228.49"/><path class="cls-15" d="m1755.76-120.12h259.66l914.95,349.47h-259.66L1755.76-120.12m-2.28,1.72l914.95,346.02h264.22L2017.7-118.39h-264.22Z"/></g><g><rect class="cls-15" x="1629.55" y="-11.12" width="84.98" height="64.3"/><path class="cls-15" d="m1629.92,52.9h84.24V-10.85h-84.24v63.74m-.74.56V-11.4h85.72V53.46h-85.72Z"/></g></g></g><g class="cls-10"><g><g><rect class="cls-8" x="1877.81" y="182.41" width="162.75" height="123.16"/><path class="cls-8" d="m1878.52,305.03h161.33v-122.08h-161.33v122.08m-1.42,1.07v-124.23h164.16v124.23h-164.16Z"/></g><g><rect class="cls-8" x="1288.52" y="-126.27" width="284.02" height="214.92"/><path class="cls-8" d="m1289.75,87.72h281.55V-125.34h-281.55V87.72m-2.47,1.87V-127.21h286.49V89.58h-286.49Z"/></g><g><polygon class="cls-8" points="2425.94 75.49 1511 -285.58 1266.67 -285.58 2181.62 75.49 2425.94 75.49"/><path class="cls-8" d="m1267.74-286.39h242.2l914.95,362.68h-242.2l-914.95-362.68m-2.12,1.61l914.95,359.47h246.45l-914.95-359.47h-246.45Z"/></g><g><rect class="cls-8" x="945.94" y="185" width="81.66" height="61.8"/><path class="cls-8" d="m946.29,246.52h80.95v-61.26h-80.95v61.26m-.71.54v-62.33h82.37v62.33h-82.37Z"/></g><g><rect class="cls-8" x="1585.25" y="20.58" width="262.4" height="198.56"/><path class="cls-8" d="m1586.39,218.28h260.11V21.44h-260.11v196.84m-2.28,1.73V19.72h264.68v200.29h-264.68Z"/></g><g><rect class="cls-8" x="2063.62" y="-66.25" width="298.17" height="225.64"/><path class="cls-8" d="m2064.92,158.41h295.58V-65.27h-295.58v223.68m-2.59,1.96V-67.23h300.77v227.6h-300.77Z"/></g><g><rect class="cls-8" x="1163.81" y="-58.4" width="217.68" height="164.73"/><path class="cls-8" d="m1164.76,105.61h215.79V-57.68h-215.79V105.61m-1.89,1.43V-59.12h219.57V107.04h-219.57Z"/></g><g><polygon class="cls-8" points="2124.52 177.84 1209.58 -177.35 957.47 -177.35 1872.42 177.84 2124.52 177.84"/><path class="cls-8" d="m958.57-178.18h249.91l914.95,356.85h-249.91L958.57-178.18m-2.19,1.66l914.95,353.53h254.3l-914.95-353.53h-254.3Z"/></g><g><polygon class="cls-8" points="1564.81 110.46 1564.81 158.53 586.34 -387.43 586.34 -435.5 1564.81 110.46"/><path class="cls-8" d="m586.61-387.64L1564.53,158.32v-47.65L586.61-435.29v47.65m-.55.42v-48.49L1565.08,110.26v48.49L586.06-387.22h0Z"/></g><g><polygon class="cls-8" points="1575.5 159.71 660.55 -264.37 499.49 -264.37 499.49 -386.25 1575.5 159.71"/><path class="cls-8" d="m500.19-264.9h159.66l914.95,425.14L500.19-385.72v120.82m-1.4,1.06v-122.94L1576.2,159.19l-914.95-423.02h-162.46Z"/></g><g><polygon class="cls-8" points="1621.2 207.35 706.25 -114.41 409.98 -114.41 409.98 -338.61 1621.2 207.35"/><path class="cls-8" d="m411.27-115.39h293.69l914.95,323.71L411.27-337.64V-115.39m-2.58,1.95v-226.15L1622.49,206.37,707.54-113.44h-298.85Z"/></g><g><rect class="cls-8" x="312.12" y="-138.72" width="242.36" height="183.4"/><path class="cls-8" d="m313.18,43.89h240.26v-181.81h-240.26V43.89m-2.11,1.59v-185h244.47V45.48h-244.47Z"/></g></g></g><polyline class="cls-6" points="1898.61 -183.63 1898.61 51.2 1588.29 51.2 1588.29 -183.63"/><polyline class="cls-6" points="1935.78 -114.39 1935.78 120.44 1625.46 120.44 1625.46 -114.39"/><polyline class="cls-6" points="1589.64 50.18 1897.26 50.18 1897.26 -182.61"/><polyline class="cls-6" points="1899.96 -184.65 1899.96 52.22 1586.94 52.22 1586.94 52.22 1586.94 -184.65"/><polyline class="cls-6" points="2291.77 -194.38 2291.77 41.86 1979.59 41.86 1979.59 -194.38"/><polyline class="cls-6" points="1980.95 40.83 2290.41 40.83 2290.41 -193.35"/><polyline class="cls-6" points="2293.12 -195.41 2293.12 42.88 1978.23 42.88 1978.23 42.88 1978.23 -195.41"/><polyline class="cls-11" points="1316.22 -17.62 1316.22 38.23 1242.41 38.23 1242.41 -17.62"/><polyline class="cls-11" points="1242.73 37.99 1315.9 37.99 1315.9 -17.38"/><polyline class="cls-11" points="1316.54 -17.86 1316.54 38.47 1242.09 38.47 1242.09 38.47 1242.09 -17.86"/><polyline class="cls-11" points="1916.29 -46.88 1916.29 102.69 1718.64 102.69 1718.64 -46.88"/><polyline class="cls-11" points="1719.5 102.04 1915.44 102.04 1915.44 -46.23"/><polyline class="cls-11" points="1917.15 -47.53 1917.15 103.34 1717.78 103.34 1717.78 103.34 1717.78 -47.53"/><polyline class="cls-11" points="2143.44 -84.08 2143.44 61.7 1950.79 61.7 1950.79 -84.08"/><polyline class="cls-11" points="1951.63 61.07 2142.61 61.07 2142.61 -83.45"/><polyline class="cls-11" points="2144.28 -84.72 2144.28 62.33 1949.96 62.33 1949.96 62.33 1949.96 -84.72"/><g class="cls-10"><rect class="cls-15" x="1199.78" y="72.35" width="220.42" height="166.8"/><path class="cls-15" d="m1200.74,238.43h218.51V73.08h-218.51v165.35m-1.92,1.45V71.62h222.34v168.25h-222.34Z"/></g></g><g id="Layer_2"><path d="m1333.1,22.08h-6.93v-240.55h6.93V22.08Zm16.11,0h-6.93v-240.55h6.93V22.08Zm38.83,23.85l-2.09,2.09h-14.18l-1.77,1.93v51.72c0,1.29-1.45,1.93-4.35,1.93.64,0,0-.05-1.93-.16-1.51-.75-2.26-1.34-2.26-1.77v-51.72l-1.93-1.93h-14.18l-1.77-2.09v-3.87c.21-.32.81-.91,1.77-1.77h40.6c.54.32,1.23.91,2.09,1.77v3.87Zm-6.61-23.85h-23.04v-240.55h23.04V22.08Zm32.22,0h-23.04v-240.55h23.04V22.08Zm32.22,0h-6.93v-240.55h6.93V22.08Z"/><path d="m1478.1,22.08h-23.04v-240.55h23.04V22.08Zm38.19,77.98c0,2.36-1.45,3.54-4.35,3.54-2.36,0-4.24-3.06-5.64-9.18-1.4-6.12-2.58-9.18-3.54-9.18h-15.63c-1.08,0-2.23,3.06-3.46,9.18-1.24,6.12-3.3,9.18-6.2,9.18-2.26,0-3.38-1.67-3.38-4.99v-1.45c0-2.26,1.29-8.43,3.87-18.53,2.15-8.06,5.32-20.2,9.51-36.41l1.77-1.93h11.12c.97,0,2.79,5.53,5.48,16.6l6.12,22.23c2.9,10.85,4.35,17.83,4.35,20.95Zm-22.07-77.98h-6.93v-240.55h6.93V22.08Zm6.61,50.75c0-2.15-.62-5.53-1.85-10.15-1.24-4.62-2.39-7.63-3.46-9.02h-1.45l-1.29,1.29c-.86,2.9-1.72,5.85-2.58,8.86-.97,3.54-1.45,6.55-1.45,9.02,0,1.93.48,2.9,1.45,2.9h9.02c1.07,0,1.61-.97,1.61-2.9Zm9.51-50.75h-6.93v-240.55h6.93V22.08Zm32.22,0h-6.93v-240.55h6.93V22.08Zm32.22,0h-23.04v-240.55h23.04V22.08Z"/><path d="m1590.88,22.08h-6.93v-240.55h6.93V22.08Zm48.82,77.01c.11,3.01-.97,4.51-3.22,4.51-1.29,0-2.42-.7-3.38-2.09-.54-.75-2.47-4.35-5.8-10.79-2.47-5.05-4.67-8.27-6.61-9.67-1.83,1.4-4.57,5.69-8.22,12.89-3.33,6.45-5.86,9.67-7.57,9.67-2.26,0-3.38-1.5-3.38-4.51,0-.43.05-1.18.16-2.26l13.05-25.78-8.38-12.89c-3.22-5.16-4.83-9.88-4.83-14.18,0-2.69,1.13-4.03,3.38-4.03s5.02,3.44,8.3,10.31c3.28,6.87,5.77,10.31,7.49,10.31,1.61,0,4.03-3.44,7.25-10.31,3.22-6.88,6.07-10.31,8.54-10.31,2.26,0,3.33,1.34,3.22,4.03v1.77l-13.21,25.29,13.21,25.78v2.26Zm-16.6-77.01h-6.93v-240.55h6.93V22.08Zm32.22,0h-23.04v-240.55h23.04V22.08Zm16.11,0h-6.93v-240.55h6.93V22.08Zm32.22,0h-23.04v-240.55h23.04V22.08Z"/><path d="m1719.77,22.08h-6.93v-240.55h6.93V22.08Zm32.22,0h-23.04v-240.55h23.04V22.08Zm16.92,77.98v1.77c-.32.43-.91,1.02-1.77,1.77h-30.77c-.32-.43-.81-1.02-1.45-1.77v-3.87l1.45-2.42h10.79v-44.47c0-1.07-1.51-1.61-4.51-1.61-3.98,0-5.96-2.09-5.96-6.28.32-.43,1.02-1.08,2.09-1.93h26.58c1.07,1.07,1.61,2.36,1.61,3.87,0,2.58-1.72,4-5.16,4.27-3.44.27-5.16.83-5.16,1.69v44.47h10.47c1.18,0,1.77,1.5,1.77,4.51Zm-.81-77.98h-6.93v-240.55h6.93V22.08Zm48.34,0h-23.04v-240.55h23.04V22.08Zm16.11,0h-6.93v-240.55h6.93V22.08Z"/><path d="m1848.67,22.08h-6.93v-240.55h6.93V22.08Zm16.11,0h-6.93v-240.55h6.93V22.08Zm36.41,79.59l-2.26,1.93h-7.41l-21.27-43.18-2.09,1.77v39.63c-1.29,1.29-2.42,1.93-3.38,1.93-.43,0-1.4-.06-2.9-.16-.32-.22-.91-.81-1.77-1.77v-59.61l1.93-1.93h7.89l20.78,41.89,2.42-1.29v-38.83c1.29-1.18,2.68-1.77,4.19-1.77,1.29,0,2.58.59,3.87,1.77v59.61Zm-4.19-79.59h-23.04v-240.55h23.04V22.08Zm16.11,0h-6.93v-240.55h6.93V22.08Zm48.34,0h-23.04v-240.55h23.04V22.08Z"/><path d="m1977.56,22.08h-6.93v-240.55h6.93V22.08Zm49.46,76.69c-2.9,3.33-9.88,4.99-20.95,4.99-7.09,0-12.46-4.08-16.11-12.25-2.69-6.12-4.03-13.32-4.03-21.59v-8.54c0-.86.38-2.2,1.13-4.03,4.73-12.03,12.08-18.05,22.07-18.05,3.44,0,6.93.75,10.47,2.26,4.29,2.04,6.44,4.51,6.44,7.41s-1.34,4.08-4.03,3.87h-1.61c-1.4-1.29-2.74-2.58-4.03-3.87-1.18-.97-2.96-1.45-5.32-1.45-11.17,0-16.76,6.98-16.76,20.95,0,8.38.75,14.39,2.26,18.04,2.47,5.8,7.3,8.7,14.5,8.7,2.9,0,5.42-1.18,7.57-3.54v-13.05h-11.6c-1.29,0-1.93-1.4-1.93-4.19,0-1.61.64-2.85,1.93-3.71h19.98v28.04Zm-33.35-76.69h-6.93v-240.55h6.93V22.08Zm16.11,0h-6.93v-240.55h6.93V22.08Zm48.34,0h-23.04v-240.55h23.04V22.08Zm32.22,0h-23.04v-240.55h23.04V22.08Z"/><g><path d="m1479.46,437.19h-23.04v-230.66h23.04v230.66Zm36.41-256.68c0,.51-.7,1.08-2.09,1.7-1.4.1-1.99.15-1.77.15-1.4,0-2.79-.62-4.19-1.85v-41.71c-.22,0-.54-.05-.97-.16-.43-.1-.75-.15-.97-.15-.64,0-1.07.36-1.29,1.08l-7.09,22.4c-.32,1.24-1.34,1.85-3.06,1.85-1.83,0-2.96-.62-3.38-1.85l-7.09-21.32c-.22-.83-.64-1.24-1.29-1.24-.22,0-.54.05-.97.15-.43.1-.75.15-.97.15v40.79c0,1.13-1.29,1.75-3.87,1.85l-2.26-.15c-.43-.21-1.02-.77-1.77-1.7v-57.01l1.77-1.85h12.25l6.28,19.16,3.06-2.78,5.64-16.38h11.76l2.25,1.85v57.01Zm-4.19,256.68h-23.04v-230.66h23.04v230.66Zm16.11,0h-6.93v-230.66h6.93v230.66Zm16.11,0h-6.93v-230.66h6.93v230.66Zm32.22,0h-6.93v-230.66h6.93v230.66Z"/><path d="m1608.35,437.19h-23.04v-230.66h23.04v230.66Zm38.18-258.22c0,2.26-1.45,3.4-4.35,3.4-2.36,0-4.25-2.94-5.64-8.81-1.4-5.87-2.58-8.81-3.54-8.81h-15.63c-1.08,0-2.23,2.93-3.46,8.81-1.24,5.87-3.3,8.81-6.2,8.81-2.26,0-3.38-1.6-3.38-4.79v-1.39c0-2.16,1.29-8.09,3.87-17.77,2.15-7.73,5.32-19.37,9.51-34.92l1.77-1.85h11.12c.97,0,2.79,5.3,5.48,15.91l6.12,21.32c2.9,10.4,4.35,17.1,4.35,20.08Zm-22.07,258.22h-6.93v-230.66h6.93v230.66Zm6.61-284.33c0-2.06-.62-5.31-1.85-9.73-1.24-4.43-2.39-7.31-3.46-8.65h-1.45l-1.29,1.24c-.86,2.78-1.72,5.61-2.58,8.5-.97,3.4-1.45,6.28-1.45,8.65,0,1.85.48,2.78,1.45,2.78h9.02c1.07,0,1.61-.93,1.61-2.78Zm9.51,284.33h-6.93v-230.66h6.93v230.66Zm32.22,0h-6.93v-230.66h6.93v230.66Zm32.22,0h-23.04v-230.66h23.04v230.66Z"/><path d="m1721.13,437.19h-6.93v-230.66h6.93v230.66Zm16.11,0h-6.93v-230.66h6.93v230.66Zm38.83-310.13l-2.09,2.01h-14.18l-1.77,1.85v49.59c0,1.24-1.45,1.85-4.35,1.85.64,0,0-.05-1.93-.15-1.5-.72-2.25-1.29-2.25-1.7v-49.59l-1.93-1.85h-14.18l-1.77-2.01v-3.71c.21-.31.81-.88,1.77-1.7h40.6c.54.31,1.23.87,2.09,1.7v3.71Zm-6.61,310.13h-23.04v-230.66h23.04v230.66Zm32.22,0h-23.04v-230.66h23.04v230.66Zm32.22,0h-6.93v-230.66h6.93v230.66Z"/><path d="m1850.02,437.19h-6.93v-230.66h6.93v230.66Zm16.11,0h-6.93v-230.66h6.93v230.66Zm38.83-310.13l-2.09,2.01h-14.18l-1.77,1.85v49.59c0,1.24-1.45,1.85-4.35,1.85.64,0,0-.05-1.93-.15-1.5-.72-2.25-1.29-2.25-1.7v-49.59l-1.93-1.85h-14.18l-1.77-2.01v-3.71c.21-.31.81-.88,1.77-1.7h40.6c.54.31,1.23.87,2.09,1.7v3.71Zm-6.61,310.13h-23.04v-230.66h23.04v230.66Zm32.22,0h-23.04v-230.66h23.04v230.66Zm32.22,0h-6.93v-230.66h6.93v230.66Z"/><path d="m1995.03,437.19h-23.04v-230.66h23.04v230.66Zm33.51-260.23v3.71c-.22.31-.75.87-1.61,1.7h-36.41v-59.79h35.29c1.18,1.03,1.77,2.26,1.77,3.71,0,1.24-.59,2.57-1.77,4.02h-26.75v17.15h22.56l1.93,1.39v4.48l-1.93,1.24h-22.56v20.08h27.87l1.61,2.32Zm-17.4,260.23h-6.93v-230.66h6.93v230.66Zm32.22,0h-23.04v-230.66h23.04v230.66Zm32.22,0h-6.93v-230.66h6.93v230.66Zm16.11,0h-6.93v-230.66h6.93v230.66Z"/><path d="m2123.92,437.19h-23.04v-230.66h23.04v230.66Zm35.28-259c0,2.78-1.13,4.17-3.38,4.17-1.51,0-2.63-.67-3.38-2.01l-13.21-22.25c-.54-.93-1.29-1.39-2.25-1.39-4.62,0-6.93.51-6.93,1.54v22.25c-1.18,1.24-2.26,1.85-3.22,1.85-.54,0-1.51-.05-2.9-.15-.54-.31-1.13-.88-1.77-1.7v-58.86h21.91c.43.1,1.39.36,2.9.77,3.76,1.24,6.71,3.53,8.86,6.88,2.15,3.35,3.22,6.98,3.22,10.89,0,5.56-3.38,10.87-10.15,15.91v1.24c.21.51,2.31,3.91,6.28,10.2,2.68,4.43,4.03,7.98,4.03,10.66Zm-8.54-39.09c0-6.49-4.62-9.73-13.86-9.73.43,0-1.24.1-5,.31l-1.29,1.24v15.76l1.29,1.24c4.08.1,5.69.15,4.83.15,9.34,0,14.02-2.99,14.02-8.96Zm-10.63,298.08h-6.93v-230.66h6.93v230.66Zm16.11,0h-6.93v-230.66h6.93v230.66Zm32.22,0h-23.04v-230.66h23.04v230.66Zm32.22,0h-6.93v-230.66h6.93v230.66Z"/><path d="m2236.7,437.19h-6.93v-230.66h6.93v230.66Zm32.22,0h-23.04v-230.66h23.04v230.66Zm16.76-269.19c0,4.63-2.15,8.29-6.45,10.97-3.65,2.26-8.06,3.4-13.21,3.4-4.41,0-8.27-1.13-11.6-3.4-3.76-2.58-5.64-5.92-5.64-10.04,0-3.09,1.18-4.64,3.54-4.64,1.83,0,3.11.88,3.87,2.63,1.29,2.68,2.09,4.27,2.42,4.79,1.61,1.65,4.35,2.47,8.22,2.47,6.87,0,10.31-2.63,10.31-7.88,0-2.58-2.36-5.51-7.09-8.81-4.51-2.99-8.97-6.03-13.37-9.12-4.73-3.81-7.09-7.67-7.09-11.59,0-4.43,1.85-8.09,5.56-10.97,3.71-2.88,7.92-4.33,12.65-4.33,3.65,0,7.25,1.03,10.79,3.09,4.08,2.37,6.12,5.15,6.12,8.34s-1.29,4.64-3.87,4.64c-1.4,0-3.01-1.31-4.83-3.94-1.83-2.63-4.57-3.94-8.22-3.94-2.79,0-5.16.72-7.09,2.16-1.93,1.44-2.9,3.45-2.9,6.03,0,2.78,2.42,5.72,7.25,8.81,4.4,2.78,8.86,5.61,13.37,8.5,4.83,3.81,7.25,8.08,7.25,12.82Zm-.64,269.19h-6.93v-230.66h6.93v230.66Zm32.22,0h-23.04v-230.66h23.04v230.66Zm32.22,0h-6.93v-230.66h6.93v230.66Z"/></g></g><g id="Layer_2_copy"><g><path class="cls-1" d="m1333.1,22.08h-6.93v-240.55h6.93V22.08Zm16.11,0h-6.93v-240.55h6.93V22.08Zm32.22,0h-23.04v-240.55h23.04V22.08Zm32.22,0h-23.04v-240.55h23.04V22.08Zm32.22,0h-6.93v-240.55h6.93V22.08Z"/><path class="cls-1" d="m1478.1,22.08h-23.04v-240.55h23.04V22.08Zm16.11,0h-6.93v-240.55h6.93V22.08Zm16.11,0h-6.93v-240.55h6.93V22.08Zm32.22,0h-6.93v-240.55h6.93V22.08Zm32.22,0h-23.04v-240.55h23.04V22.08Z"/><path class="cls-1" d="m1590.88,22.08h-6.93v-240.55h6.93V22.08Zm32.22,0h-6.93v-240.55h6.93V22.08Zm32.22,0h-23.04v-240.55h23.04V22.08Zm16.11,0h-6.93v-240.55h6.93V22.08Zm32.22,0h-23.04v-240.55h23.04V22.08Z"/><path class="cls-1" d="m1719.77,22.08h-6.93v-240.55h6.93V22.08Zm32.22,0h-23.04v-240.55h23.04V22.08Zm16.11,0h-6.93v-240.55h6.93V22.08Zm48.34,0h-23.04v-240.55h23.04V22.08Zm16.11,0h-6.93v-240.55h6.93V22.08Z"/><path class="cls-1" d="m1848.67,22.08h-6.93v-240.55h6.93V22.08Zm16.11,0h-6.93v-240.55h6.93V22.08Zm32.22,0h-23.04v-240.55h23.04V22.08Zm16.11,0h-6.93v-240.55h6.93V22.08Zm48.34,0h-23.04v-240.55h23.04V22.08Z"/><path class="cls-1" d="m1977.56,22.08h-6.93v-240.55h6.93V22.08Zm16.11,0h-6.93v-240.55h6.93V22.08Zm16.11,0h-6.93v-240.55h6.93V22.08Zm48.34,0h-23.04v-240.55h23.04V22.08Zm32.22,0h-23.04v-240.55h23.04V22.08Z"/><g><path class="cls-1" d="m1479.46,437.19h-23.04v-230.66h23.04v230.66Zm32.22,0h-23.04v-230.66h23.04v230.66Zm16.11,0h-6.93v-230.66h6.93v230.66Zm16.11,0h-6.93v-230.66h6.93v230.66Zm32.22,0h-6.93v-230.66h6.93v230.66Z"/><path class="cls-1" d="m1608.35,437.19h-23.04v-230.66h23.04v230.66Zm16.11,0h-6.93v-230.66h6.93v230.66Zm16.11,0h-6.93v-230.66h6.93v230.66Zm32.22,0h-6.93v-230.66h6.93v230.66Zm32.22,0h-23.04v-230.66h23.04v230.66Z"/><path class="cls-1" d="m1721.13,437.19h-6.93v-230.66h6.93v230.66Zm16.11,0h-6.93v-230.66h6.93v230.66Zm32.22,0h-23.04v-230.66h23.04v230.66Zm32.22,0h-23.04v-230.66h23.04v230.66Zm32.22,0h-6.93v-230.66h6.93v230.66Z"/><path class="cls-1" d="m1850.02,437.19h-6.93v-230.66h6.93v230.66Zm16.11,0h-6.93v-230.66h6.93v230.66Zm32.22,0h-23.04v-230.66h23.04v230.66Zm32.22,0h-23.04v-230.66h23.04v230.66Zm32.22,0h-6.93v-230.66h6.93v230.66Z"/><path class="cls-1" d="m1995.03,437.19h-23.04v-230.66h23.04v230.66Zm16.11,0h-6.93v-230.66h6.93v230.66Zm32.22,0h-23.04v-230.66h23.04v230.66Zm32.22,0h-6.93v-230.66h6.93v230.66Zm16.11,0h-6.93v-230.66h6.93v230.66Z"/><path class="cls-1" d="m2123.92,437.19h-23.04v-230.66h23.04v230.66Zm16.11,0h-6.93v-230.66h6.93v230.66Zm16.11,0h-6.93v-230.66h6.93v230.66Zm32.22,0h-23.04v-230.66h23.04v230.66Zm32.22,0h-6.93v-230.66h6.93v230.66Z"/><path class="cls-1" d="m2236.7,437.19h-6.93v-230.66h6.93v230.66Zm32.22,0h-23.04v-230.66h23.04v230.66Zm16.11,0h-6.93v-230.66h6.93v230.66Zm32.22,0h-23.04v-230.66h23.04v230.66Zm32.22,0h-6.93v-230.66h6.93v230.66Z"/></g></g></g><g id="Layer_4"><g><path class="cls-1" d="m1300.56,62.96h-45.64c.62-9.18,1.06-15.4,1.17-16.33.02-.17.04-.35.07-.56.34-2.74,1.06-8.44-2.77-12.78-2.54-2.87-6.51-4.45-11.82-4.69v-.04h-1.5s0,0,0,0h0s-118.9,0-118.9,0c-15.58,0-21.13,14.05-21.13,27.19h.13c-.08.22-.13.46-.13.7,0,1.41,1.46,2.56,3.26,2.56h26.49c-2.09,30.58-6.83,104.01-6.83,109.18,0,.93-.16,2.28-.33,3.71-.64,5.45-1.52,12.92,3.05,18.06,2.84,3.2,7.31,4.82,13.28,4.82,0,0,0,0,0,0h41.68v7.56h51.04v-44.18h21.61v44.18h17.39v-9.3h40.13l-10.23-130.07Z"/><path d="m1138.71,194.45c6.05,0,11.56-2.84,15.92-8.21,3.81-4.68,5.7-9.99,6.2-13.39l-6.44-.95c-.8,5.42-6.38,16.03-15.68,16.03-4.03,0-6.86-.89-8.41-2.64-2.62-2.95-1.97-8.51-1.44-12.97.19-1.62.37-3.16.37-4.46,0-6.38,7.27-117.37,7.74-121.56.02-.17.04-.35.07-.56.34-2.74,1.06-8.44-2.77-12.78-2.77-3.14-7.25-4.73-13.32-4.73-15.58,0-21.13,14.05-21.13,27.19h6.51c0-6.22,1.42-20.68,14.62-20.68,2.83,0,6.6.44,8.44,2.53,1.89,2.14,1.45,5.6,1.2,7.66-.03.24-.06.46-.08.65-.47,4.21-7.77,115.85-7.78,122.27,0,.93-.16,2.28-.33,3.71-.64,5.45-1.52,12.92,3.05,18.06,2.84,3.2,7.31,4.82,13.28,4.82Z"/><path d="m1247.68,150.42c.18,1.19.33,2.38.46,3.57.13-.07.28-.13.43-.17.09-.12.19-.24.31-.34,1.87-31.66,6.62-103.81,6.99-107.17.02-.17.04-.35.07-.56.34-2.74,1.06-8.44-2.77-12.78-2.77-3.14-7.25-4.73-13.32-4.73l1.51,5.58c2.83,0,5.09,1.37,6.94,3.46,1.89,2.14,1.45,5.6,1.2,7.66-.03.24-.06.46-.08.65-.37,3.36-5.11,75.31-7,107.37.26-.85.53-1.7.81-2.54.65-1.96,4.12-2.44,4.49,0Z"/><rect x="1120.93" y="28.24" width="120.41" height="5.58"/><path d="m1103.06,58.68h29.88c1.8,0,3.26-1.15,3.26-2.56s-1.46-2.56-3.26-2.56h-29.88c-1.8,0-3.26,1.15-3.26,2.56s1.46,2.56,3.26,2.56Z"/><path d="m1232.84,189.47c.15-.51.27-1.02.37-1.54h-.32c-.02.51-.04,1.03-.05,1.54Z"/><path d="m1254.49,187.94h-.12c-.02,2.19-.17,4.36-.47,6.51h.19c.34-2.13.45-4.33.4-6.51Z"/><path d="m1259.32,188.42c.01,1.94-.1,3.86-.37,5.73,1.13-.51,1.92-1.64,1.92-2.97,0-1.17-.62-2.19-1.55-2.77Z"/><path d="m1228.23,187.94h-89.52c-1.8,0-3.26,1.46-3.26,3.26s1.46,3.26,3.26,3.26h89.38c.03-2.17.07-4.34.14-6.51Z"/><g><path d="m1187.7,166.73h-46.47c-3.51,0-6.17-2.72-5.94-6.07l7.96-111.74c.24-3.35,3.29-6.07,6.8-6.07h28.79c3.51,0,6.17,2.72,5.94,6.07l-.64,9.03c-.14,1.94,1.4,3.52,3.44,3.52h42.4c3.51,0,6.17,2.72,5.94,6.07l-6.18,86.74c-.24,3.35-3.29,6.07-6.8,6.07h-32.39c-.11.46-.15,1.33-.18,1.89-.07,1.56-.14,3.03-1.1,3.9-.43.39-.97.6-1.57.6Zm-37.82-121.33c-2.03,0-3.8,1.58-3.94,3.52l-7.96,111.74c-.14,1.94,1.4,3.52,3.44,3.52h46.09c.11-.46.15-1.33.18-1.89.07-1.56.14-3.03,1.1-3.9.43-.39.97-.6,1.57-.6h32.77c2.03,0,3.8-1.58,3.94-3.52l6.18-86.74c.14-1.94-1.4-3.52-3.44-3.52h-42.4c-3.51,0-6.17-2.72-5.94-6.07l.64-9.03c.14-1.94-1.4-3.52-3.44-3.52h-28.79Z"/><path d="m1224.95,74.42h-72.77c-1.11,0-1.95-.86-1.87-1.92s1.04-1.92,2.15-1.92h72.77c1.11,0,1.95.86,1.87,1.92s-1.04,1.92-2.15,1.92Z"/><g><path d="m1224.44,81.62h-72.77c-.65,0-1.14-.5-1.09-1.12s.61-1.12,1.25-1.12h72.77c.65,0,1.14.5,1.09,1.12s-.61,1.12-1.25,1.12Z"/><path d="m1223.98,88.01h-72.77c-.65,0-1.14-.5-1.09-1.12s.61-1.12,1.25-1.12h72.77c.65,0,1.14.5,1.09,1.12s-.61,1.12-1.25,1.12Z"/><path d="m1223.53,94.4h-72.77c-.65,0-1.14-.5-1.09-1.12s.61-1.12,1.25-1.12h72.77c.65,0,1.14.5,1.09,1.12s-.61,1.12-1.25,1.12Z"/><path d="m1223.07,100.79h-72.77c-.65,0-1.14-.5-1.09-1.12s.61-1.12,1.25-1.12h72.77c.65,0,1.14.5,1.09,1.12s-.61,1.12-1.25,1.12Z"/></g><path d="m1222.44,109.58h-72.77c-1.11,0-1.95-.86-1.87-1.92s1.04-1.92,2.15-1.92h72.77c1.11,0,1.95.86,1.87,1.92s-1.04,1.92-2.15,1.92Z"/></g><g><line class="cls-3" x1="1282.06" y1="62.64" x2="1282.06" y2="16"/><line class="cls-3" x1="1262.53" y1="62.64" x2="1262.53" y2="16"/></g><path d="m1275.4,171.3l-6.14,2.15c1.45,4.12.77,8.46-1.8,11.61-1.37,1.68-4.11,2.63-8.15,2.83.04,2.22-.08,4.4-.41,6.53,6.43-.2,10.88-1.92,13.59-5.24,4.02-4.92,5.1-11.6,2.9-17.88Z"/><path d="m1228.92,169.12h-71.31c-1.8,0-3.26,1.46-3.26,3.26s1.46,3.26,3.26,3.26h71.09c.09-2.17.16-4.34.22-6.51Z"/><path d="m1272.33,169.12h-13.72c.89.5,1.44,1.48,1.12,2.6-.38,1.3-.77,2.61-1.2,3.91h13.81c1.8,0,3.26-1.46,3.26-3.26s-1.46-3.26-3.26-3.26Z"/><path class="cls-2" d="m1247.68,150.42c.18,1.19.33,2.38.46,3.57.13-.07.28-.13.43-.17,1.03-1.43,3.66-1.57,4.13.61.97,4.45,2.34,9.3,3.58,14.3.4,0,.8.02,1.2.05,1.47.11,2.69,1.4,2.24,2.94-.5,1.73-1.03,3.46-1.63,5.18,1,5.34,1.55,10.7,1.03,15.8h51.45l-10.23-130.07h-56.08l-7.29,92.7c1.27-.92,3.24-.75,3.69,1.09.09.37.17.75.26,1.12.03.04.05.08.08.12.69-2.43,1.41-4.86,2.2-7.26.65-1.96,4.12-2.44,4.49,0Z"/><path class="cls-2" d="m1254.38,185.49s-.02.03-.02.05c.07,2.41,0,4.8-.24,7.17h.21c.24-2.39.23-4.82.05-7.22Z"/><polygon class="cls-2" points="1168.35 146.18 1173.53 153.6 1180.39 147.86 1180.39 202.01 1231.43 202.01 1231.43 157.83 1253.05 157.83 1253.05 202.01 1270.43 202.01 1270.43 147.86 1277.29 153.6 1282.48 146.18 1225.29 101.68 1204.08 118.35 1204.08 100.64 1192.35 100.64 1192.35 127.36 1168.35 146.18"/><rect class="cls-2" x="1190.44" y="152.25" width="28.39" height="24.86"/><line class="cls-4" x1="1192.22" y1="47.48" x2="1233" y2="47.86"/><line class="cls-4" x1="1154.36" y1="53.57" x2="1171.18" y2="53.57"/></g><g><path class="cls-1" d="m1300.56,62.96h-45.64c.62-9.18,1.06-15.4,1.17-16.33.02-.17.04-.35.07-.56.34-2.74,1.06-8.44-2.77-12.78-2.54-2.87-6.51-4.45-11.82-4.69v-.04h-1.5s0,0,0,0h0s-118.9,0-118.9,0c-15.58,0-21.13,14.05-21.13,27.19h.13c-.08.22-.13.46-.13.7,0,1.41,1.46,2.56,3.26,2.56h26.49c-2.09,30.58-6.83,104.01-6.83,109.18,0,.93-.16,2.28-.33,3.71-.64,5.45-1.52,12.92,3.05,18.06,2.84,3.2,7.31,4.82,13.28,4.82,0,0,0,0,0,0h41.68v7.56h51.04v-44.18h21.61v44.18h17.39v-9.3h40.13l-10.23-130.07Z"/><path d="m1138.71,194.45c6.05,0,11.56-2.84,15.92-8.21,3.81-4.68,5.7-9.99,6.2-13.39l-6.44-.95c-.8,5.42-6.38,16.03-15.68,16.03-4.03,0-6.86-.89-8.41-2.64-2.62-2.95-1.97-8.51-1.44-12.97.19-1.62.37-3.16.37-4.46,0-6.38,7.27-117.37,7.74-121.56.02-.17.04-.35.07-.56.34-2.74,1.06-8.44-2.77-12.78-2.77-3.14-7.25-4.73-13.32-4.73-15.58,0-21.13,14.05-21.13,27.19h6.51c0-6.22,1.42-20.68,14.62-20.68,2.83,0,6.6.44,8.44,2.53,1.89,2.14,1.45,5.6,1.2,7.66-.03.24-.06.46-.08.65-.47,4.21-7.77,115.85-7.78,122.27,0,.93-.16,2.28-.33,3.71-.64,5.45-1.52,12.92,3.05,18.06,2.84,3.2,7.31,4.82,13.28,4.82Z"/><path d="m1247.68,150.42c.18,1.19.33,2.38.46,3.57.13-.07.28-.13.43-.17.09-.12.19-.24.31-.34,1.87-31.66,6.62-103.81,6.99-107.17.02-.17.04-.35.07-.56.34-2.74,1.06-8.44-2.77-12.78-2.77-3.14-7.25-4.73-13.32-4.73l1.51,5.58c2.83,0,5.09,1.37,6.94,3.46,1.89,2.14,1.45,5.6,1.2,7.66-.03.24-.06.46-.08.65-.37,3.36-5.11,75.31-7,107.37.26-.85.53-1.7.81-2.54.65-1.96,4.12-2.44,4.49,0Z"/><rect x="1120.93" y="28.24" width="120.41" height="5.58"/><path d="m1103.06,58.68h29.88c1.8,0,3.26-1.15,3.26-2.56s-1.46-2.56-3.26-2.56h-29.88c-1.8,0-3.26,1.15-3.26,2.56s1.46,2.56,3.26,2.56Z"/><path d="m1232.84,189.47c.15-.51.27-1.02.37-1.54h-.32c-.02.51-.04,1.03-.05,1.54Z"/><path d="m1254.49,187.94h-.12c-.02,2.19-.17,4.36-.47,6.51h.19c.34-2.13.45-4.33.4-6.51Z"/><path d="m1259.32,188.42c.01,1.94-.1,3.86-.37,5.73,1.13-.51,1.92-1.64,1.92-2.97,0-1.17-.62-2.19-1.55-2.77Z"/><path d="m1228.23,187.94h-89.52c-1.8,0-3.26,1.46-3.26,3.26s1.46,3.26,3.26,3.26h89.38c.03-2.17.07-4.34.14-6.51Z"/><g><path d="m1187.7,166.73h-46.47c-3.51,0-6.17-2.72-5.94-6.07l7.96-111.74c.24-3.35,3.29-6.07,6.8-6.07h28.79c3.51,0,6.17,2.72,5.94,6.07l-.64,9.03c-.14,1.94,1.4,3.52,3.44,3.52h42.4c3.51,0,6.17,2.72,5.94,6.07l-6.18,86.74c-.24,3.35-3.29,6.07-6.8,6.07h-32.39c-.11.46-.15,1.33-.18,1.89-.07,1.56-.14,3.03-1.1,3.9-.43.39-.97.6-1.57.6Zm-37.82-121.33c-2.03,0-3.8,1.58-3.94,3.52l-7.96,111.74c-.14,1.94,1.4,3.52,3.44,3.52h46.09c.11-.46.15-1.33.18-1.89.07-1.56.14-3.03,1.1-3.9.43-.39.97-.6,1.57-.6h32.77c2.03,0,3.8-1.58,3.94-3.52l6.18-86.74c.14-1.94-1.4-3.52-3.44-3.52h-42.4c-3.51,0-6.17-2.72-5.94-6.07l.64-9.03c.14-1.94-1.4-3.52-3.44-3.52h-28.79Z"/><path d="m1224.95,74.42h-72.77c-1.11,0-1.95-.86-1.87-1.92s1.04-1.92,2.15-1.92h72.77c1.11,0,1.95.86,1.87,1.92s-1.04,1.92-2.15,1.92Z"/><g><path d="m1224.44,81.62h-72.77c-.65,0-1.14-.5-1.09-1.12s.61-1.12,1.25-1.12h72.77c.65,0,1.14.5,1.09,1.12s-.61,1.12-1.25,1.12Z"/><path d="m1223.98,88.01h-72.77c-.65,0-1.14-.5-1.09-1.12s.61-1.12,1.25-1.12h72.77c.65,0,1.14.5,1.09,1.12s-.61,1.12-1.25,1.12Z"/><path d="m1223.53,94.4h-72.77c-.65,0-1.14-.5-1.09-1.12s.61-1.12,1.25-1.12h72.77c.65,0,1.14.5,1.09,1.12s-.61,1.12-1.25,1.12Z"/><path d="m1223.07,100.79h-72.77c-.65,0-1.14-.5-1.09-1.12s.61-1.12,1.25-1.12h72.77c.65,0,1.14.5,1.09,1.12s-.61,1.12-1.25,1.12Z"/></g><path d="m1222.44,109.58h-72.77c-1.11,0-1.95-.86-1.87-1.92s1.04-1.92,2.15-1.92h72.77c1.11,0,1.95.86,1.87,1.92s-1.04,1.92-2.15,1.92Z"/></g><g><line class="cls-3" x1="1282.06" y1="62.64" x2="1282.06" y2="16"/><line class="cls-3" x1="1262.53" y1="62.64" x2="1262.53" y2="16"/></g><path d="m1275.4,171.3l-6.14,2.15c1.45,4.12.77,8.46-1.8,11.61-1.37,1.68-4.11,2.63-8.15,2.83.04,2.22-.08,4.4-.41,6.53,6.43-.2,10.88-1.92,13.59-5.24,4.02-4.92,5.1-11.6,2.9-17.88Z"/><path d="m1228.92,169.12h-71.31c-1.8,0-3.26,1.46-3.26,3.26s1.46,3.26,3.26,3.26h71.09c.09-2.17.16-4.34.22-6.51Z"/><path d="m1272.33,169.12h-13.72c.89.5,1.44,1.48,1.12,2.6-.38,1.3-.77,2.61-1.2,3.91h13.81c1.8,0,3.26-1.46,3.26-3.26s-1.46-3.26-3.26-3.26Z"/><path class="cls-2" d="m1247.68,150.42c.18,1.19.33,2.38.46,3.57.13-.07.28-.13.43-.17,1.03-1.43,3.66-1.57,4.13.61.97,4.45,2.34,9.3,3.58,14.3.4,0,.8.02,1.2.05,1.47.11,2.69,1.4,2.24,2.94-.5,1.73-1.03,3.46-1.63,5.18,1,5.34,1.55,10.7,1.03,15.8h51.45l-10.23-130.07h-56.08l-7.29,92.7c1.27-.92,3.24-.75,3.69,1.09.09.37.17.75.26,1.12.03.04.05.08.08.12.69-2.43,1.41-4.86,2.2-7.26.65-1.96,4.12-2.44,4.49,0Z"/><path class="cls-2" d="m1254.38,185.49s-.02.03-.02.05c.07,2.41,0,4.8-.24,7.17h.21c.24-2.39.23-4.82.05-7.22Z"/><polygon class="cls-2" points="1168.35 146.18 1173.53 153.6 1180.39 147.86 1180.39 202.01 1231.43 202.01 1231.43 157.83 1253.05 157.83 1253.05 202.01 1270.43 202.01 1270.43 147.86 1277.29 153.6 1282.48 146.18 1225.29 101.68 1204.08 118.35 1204.08 100.64 1192.35 100.64 1192.35 127.36 1168.35 146.18"/><rect class="cls-2" x="1190.44" y="152.25" width="28.39" height="24.86"/><line class="cls-4" x1="1192.22" y1="47.48" x2="1233" y2="47.86"/><line class="cls-4" x1="1154.36" y1="53.57" x2="1171.18" y2="53.57"/></g></g></g></svg>