<?xml version="1.0" encoding="UTF-8"?><svg xmlns="http://www.w3.org/2000/svg" viewBox="0 0 4189 40"><defs><style>.cls-1{fill:#587594;}.cls-2{isolation:isolate;}.cls-3{opacity:.63;}.cls-4,.cls-5{font-family:IDAutomationHC39S, IDAutomationHC39S;font-size:161.12px;}.cls-6{fill:#759ac1;}.cls-7{fill:#d15050;}.cls-8{mix-blend-mode:multiply;opacity:.42;}.cls-5{fill:#fff;opacity:.79;}</style></defs><g class="cls-2"><g id="Layer_1" class="cls-3"><g class="cls-8"><rect class="cls-1" x="1443.72" y="-8.83" width="133.65" height="101.13"/><path class="cls-1" d="m1444.3,91.86h132.48V-8.39h-132.48v100.25m-1.16.88V-9.27h134.81v102.01h-134.81Z"/></g><g class="cls-8"><g><rect class="cls-6" x="726.15" y="27.38" width="197.65" height="149.57"/><path class="cls-6" d="m727.01,176.3h195.94V28.03h-195.94v148.27m-1.72,1.3V26.73h199.37v150.87h-199.37Z"/></g><g><rect class="cls-6" x="958.3" y="-9.82" width="192.65" height="145.78"/><path class="cls-6" d="m959.14,135.33h190.98V-9.19h-190.98v144.52m-1.68,1.27V-10.46h194.33v147.05h-194.33Z"/></g></g><g class="cls-8"><g><g><rect class="cls-1" x="1944.81" y="5.79" width="64.5" height="48.81"/><path class="cls-1" d="m1945.09,54.39h63.94V6h-63.94v48.38m-.56.42V5.58h65.06v49.23h-65.06Z"/></g><g><rect class="cls-1" x="2671.79" y="32.63" width="310.33" height="234.83"/><rect class="cls-1" x="2575.53" y="-15.69" width="310.33" height="234.83"/><path class="cls-1" d="m2673.14,266.44h307.63V33.65h-307.63v232.79m-2.7,2.04V31.61h313.03v236.88h-313.03Z"/></g><g><rect class="cls-1" x="3063.09" y="21.88" width="312.18" height="236.23"/><path class="cls-1" d="m3064.45,257.09h309.46V22.91h-309.46v234.18m-2.71,2.05V20.85h314.89v238.29h-314.89Z"/></g></g></g><g class="cls-8"><g><rect class="cls-6" x="2244.24" y="-226.13" width="303.04" height="229.32"/><path class="cls-6" d="m2245.55,2.19h300.4v-227.32h-300.4V2.19m-2.64,1.99v-231.31h305.67V4.19h-305.67Z"/></g><g><rect class="cls-6" x="1541.31" y="-71.93" width="191.44" height="144.87"/><path class="cls-6" d="m1542.14,72.31h189.78V-71.3h-189.78V72.31m-1.66,1.26V-72.56h193.11V73.57h-193.11Z"/></g><g><rect class="cls-6" x="1132.16" y="-102.26" width="270.91" height="205.01"/><path class="cls-6" d="m1133.34,101.86h268.56V-101.37h-268.56V101.86m-2.36,1.78V-103.15h273.27V103.64h-273.27Z"/></g></g><g class="cls-8"><g><g><rect class="cls-7" x="2812.54" y="-172.24" width="314.38" height="237.9"/><path class="cls-7" d="m2813.91,64.63h311.65v-235.84h-311.65V64.63m-2.73,2.07v-239.97h317.12V66.7h-317.12Z"/></g><g><rect class="cls-7" x="2609.42" y="-89.96" width="172.07" height="130.21"/><path class="cls-7" d="m2610.17,39.69h170.57V-89.39h-170.57V39.69m-1.5,1.13V-90.52h173.57V40.82h-173.57Z"/></g></g></g><g class="cls-8"><g><g><rect class="cls-7" x="1903.31" y="-7.08" width="314.38" height="237.9"/><path class="cls-7" d="m1904.68,229.79h311.65V-6.05h-311.65v235.84m-2.73,2.07V-8.12h317.12v239.97h-317.12Z"/></g><g><rect class="cls-7" x="1389.61" y="2.91" width="153.9" height="116.46"/><path class="cls-7" d="m1390.28,118.87h152.56V3.42h-152.56v115.45m-1.34,1.01V2.41h155.24v117.48h-155.24Z"/></g></g></g><g><rect class="cls-1" x="4163.7" y="-96.32" width="312.18" height="236.23"/><path class="cls-1" d="m4165.05,138.89h309.46V-95.29h-309.46v234.18m-2.71,2.05V-97.35h314.89v238.29h-314.89Z"/></g></g><g id="Layer_2"><text class="cls-4" transform="translate(1620.53 229.72)"><tspan x="0" y="0">Every PIN IS sacred</tspan></text></g><g id="Layer_2_copy"><text class="cls-5" transform="translate(1620.53 229.72)"><tspan x="0" y="0">Every PIN IS sacred</tspan></text></g></g></svg>