<?xml version="1.0" encoding="UTF-8"?><svg xmlns="http://www.w3.org/2000/svg" xmlns:xlink="http://www.w3.org/1999/xlink" viewBox="0 0 4189 218"><defs><style>.cls-1{letter-spacing:-.02em;}.cls-2,.cls-3{fill:#fff;}.cls-3,.cls-4{stroke-width:6.98px;}.cls-3,.cls-4,.cls-5{stroke:#000;}.cls-3,.cls-5{stroke-linejoin:round;}.cls-6{letter-spacing:-.04em;}.cls-7,.cls-8{fill:#587594;}.cls-9{letter-spacing:-.01em;}.cls-10{isolation:isolate;}.cls-11{letter-spacing:-.03em;}.cls-12{fill:#896da2;}.cls-13{opacity:.63;}.cls-14{letter-spacing:0em;}.cls-4{stroke-miterlimit:10;}.cls-4,.cls-5{fill:none;}.cls-8,.cls-15{opacity:.42;}.cls-8,.cls-15,.cls-16{mix-blend-mode:multiply;}.cls-17{letter-spacing:-.04em;}.cls-18,.cls-16{fill:#759ac1;}.cls-19{fill:#272727;}.cls-20{letter-spacing:0em;}.cls-21{font-family:Roboto-Black, 'Roboto Black';font-size:139px;font-weight:800;}.cls-22{letter-spacing:-.03em;}.cls-23{letter-spacing:-.02em;}.cls-24{fill:#d15050;}.cls-5{stroke-linecap:round;stroke-width:2.79px;}.cls-25{letter-spacing:0em;}.cls-26{letter-spacing:-.02em;}.cls-27{letter-spacing:-.01em;}.cls-28{letter-spacing:-.02em;}.cls-29{font-family:Roboto-Regular, Roboto;font-size:60px;}.cls-30{fill:#3074b1;}.cls-31{letter-spacing:0em;}.cls-32{font-family:Roboto-BoldCondensedItalic, Roboto;font-size:19px;font-style:italic;font-weight:700;}.cls-16{opacity:.19;}.cls-33{letter-spacing:0em;}.cls-34{letter-spacing:0em;}</style><symbol id="New_Symbol" viewBox="0 0 45 45"><g><rect class="cls-2" x=".5" y=".5" width="44" height="44"/><path d="m44,1v43H1V1h43m1-1H0v45h45V0h0Z"/></g></symbol></defs><g class="cls-10"><g id="Layer_1" class="cls-13"><use width="45" height="45" transform="translate(1726.79 224.34) rotate(-180) scale(.95 .72)" xlink:href="#New_Symbol"/><g class="cls-15"><rect class="cls-18" x="2963.88" y="57.02" width="110.56" height="83.66"/><g><rect class="cls-19" x="2954.83" y="-44.61" width="133.33" height="100.9"/><path d="m2955.41,55.85h132.18V-44.17h-132.18V55.85m-1.16.88V-45.05h134.49V56.73h-134.49Z"/></g></g><g class="cls-15"><g><rect class="cls-7" x="2203.9" y="-75.55" width="310.4" height="234.89"/><path class="cls-7" d="m2205.25,158.32h307.7V-74.53h-307.7v232.85m-2.7,2.04V-76.57h313.1v236.93h-313.1Z"/></g></g><g class="cls-15"><g><rect class="cls-18" x="2244.24" y="54.87" width="303.04" height="229.32"/><path class="cls-18" d="m2245.55,283.19h300.4V55.87h-300.4v227.32m-2.64,1.99V53.87h305.67v231.31h-305.67Z"/></g><g><rect class="cls-18" x="1986.03" y="-144.53" width="219.61" height="166.19"/><path class="cls-18" d="m1986.99,20.94h217.71v-164.74h-217.71V20.94m-1.91,1.45v-167.63h221.52V22.39h-221.52Z"/></g><g><rect class="cls-18" x="2753.68" y="27.42" width="257.76" height="195.06"/><path class="cls-18" d="m2754.8,221.63h255.52V28.27h-255.52v193.36m-2.24,1.7V26.57h260v196.75h-260Z"/></g><g><rect class="cls-18" x="1541.31" y="209.07" width="191.44" height="144.87"/><path class="cls-18" d="m1542.14,353.31h189.78v-143.61h-189.78v143.61m-1.66,1.26v-146.13h193.11v146.13h-193.11Z"/></g><g><rect class="cls-18" x="1360.89" y="26.89" width="131.12" height="99.22"/><path class="cls-18" d="m1361.46,125.68h129.98V27.32h-129.98v98.36m-1.14.86V26.46h132.26v100.08h-132.26Z"/></g><g><rect class="cls-18" x="1132.16" y="178.74" width="270.91" height="205.01"/><path class="cls-18" d="m1133.34,382.86h268.56v-203.23h-268.56v203.23m-2.36,1.78v-206.79h273.27v206.79h-273.27Z"/></g><g><rect class="cls-18" x="1733.54" y="59.36" width="74.07" height="56.05"/><path class="cls-18" d="m1733.86,115.16h73.42v-55.56h-73.42v55.56m-.64.49v-56.53h74.71v56.53h-74.71Z"/></g></g><g class="cls-15"><g><g><rect class="cls-24" x="2812.54" y="108.76" width="314.38" height="237.9"/><path class="cls-24" d="m2813.91,345.63h311.65V109.79h-311.65v235.84m-2.73,2.07V107.72h317.12v239.97h-317.12Z"/></g><g><rect class="cls-24" x="2616.43" y="-67.12" width="232.95" height="176.28"/><path class="cls-24" d="m2617.44,108.39h230.92V-66.35h-230.92V108.39m-2.03,1.53V-67.88h234.97V109.93h-234.97Z"/></g><g><rect class="cls-24" x="3413.77" y="-38.43" width="228.07" height="172.59"/><path class="cls-24" d="m3414.76,133.41h226.08V-37.68h-226.08v171.08m-1.98,1.5V-39.18h230.05v174.09h-230.05Z"/></g><g><rect class="cls-24" x="3253.45" y="145.19" width="61" height="46.16"/><path class="cls-24" d="m3253.72,191.15h60.47v-45.76h-60.47v45.76m-.53.4v-46.56h61.53v46.56h-61.53Z"/></g><g><rect class="cls-24" x="2298.84" y="118.75" width="153.9" height="116.46"/><path class="cls-24" d="m2299.51,234.71h152.56v-115.45h-152.56v115.45m-1.34,1.01v-117.48h155.24v117.48h-155.24Z"/></g><g><rect class="cls-24" x="2609.42" y="191.04" width="172.07" height="130.21"/><path class="cls-24" d="m2610.17,320.69h170.57v-129.08h-170.57v129.08m-1.5,1.13v-131.34h173.57v131.34h-173.57Z"/></g><g><polygon class="cls-24" points="3835.15 237.35 2920.2 -146.95 2706.57 -146.95 3621.51 237.35 3835.15 237.35"/><path class="cls-24" d="m2707.49-147.65h211.78l914.95,385.7h-211.78l-914.95-385.7m-1.86,1.41l914.95,382.89h215.49l-914.95-382.89h-215.49Z"/></g></g></g><g class="cls-15"><g><g><rect class="cls-24" x="1707.2" y="98.04" width="232.95" height="176.28"/><path class="cls-24" d="m1708.21,273.55h230.92V98.81h-230.92v174.75m-2.03,1.53V97.27h234.97v177.81h-234.97Z"/></g><g><polygon class="cls-24" points="2732.61 126.73 1817.66 -246.65 1589.59 -246.65 2504.54 126.73 2732.61 126.73"/><path class="cls-24" d="m1590.58-247.4h226.08l914.95,374.88h-226.08l-914.95-374.88m-1.98,1.5l914.95,371.88h230.05l-914.95-371.88h-230.05Z"/></g><g><rect class="cls-24" x="1797.34" y="-143.46" width="213.64" height="161.67"/><path class="cls-24" d="m1798.27,17.51h211.78v-160.26h-211.78V17.51m-1.86,1.41v-163.07h215.49V18.91h-215.49Z"/></g></g></g><g class="cls-15"><g><g><rect class="cls-30" x="1705.63" y="151.76" width="146.97" height="111.22"/><path class="cls-30" d="m1706.27,262.49h145.69v-110.25h-145.69v110.25m-1.28.97v-112.18h148.25v112.18h-148.25Z"/></g><g><rect class="cls-30" x="1936.62" y="-8.11" width="128.84" height="97.5"/><path class="cls-30" d="m1937.18,88.97h127.72V-7.68h-127.72v96.65m-1.12.85V-8.53h129.96v98.34h-129.96Z"/></g><g><rect class="cls-30" x="2054.23" y="99.15" width="131.95" height="99.85"/><path class="cls-30" d="m2054.8,198.57h130.8v-98.98h-130.8v98.98m-1.15.87v-100.72h133.09v100.72h-133.09Z"/></g><g><rect class="cls-30" x="2172.44" y="43.57" width="276.44" height="209.19"/><path class="cls-30" d="m2173.64,251.86h274.04V44.48h-274.04v207.38m-2.4,1.82V42.66h278.85v211.01h-278.85Z"/></g><g><rect class="cls-30" x="2445.59" y="14.49" width="223.58" height="169.19"/><path class="cls-30" d="m2446.56,182.95h221.63V15.23h-221.63v167.72m-1.94,1.47V13.76h225.52v170.66h-225.52Z"/></g><g><rect class="cls-30" x="3644.96" y="71.73" width="61.8" height="46.77"/><path class="cls-30" d="m3645.23,118.3h61.27v-46.36h-61.27v46.36m-.54.41v-47.18h62.34v47.18h-62.34Z"/></g><g><rect class="cls-30" x="2240.82" y="-84.77" width="206.6" height="156.34"/><path class="cls-30" d="m2241.72,70.88h204.8V-84.09h-204.8V70.88m-1.8,1.36V-85.45h208.39V72.24h-208.39Z"/></g><g><polygon class="cls-30" points="3222.42 234.24 2307.48 -214.86 2179.48 -214.86 3094.43 234.24 3222.42 234.24"/><path class="cls-30" d="m2180.04-215.28h126.89l914.95,449.94h-126.89l-914.95-449.94m-1.11.84l914.95,448.26h129.11l-914.95-448.26h-129.11Z"/></g><g><rect class="cls-30" x="1976.62" y="10.23" width="164.94" height="124.82"/><path class="cls-30" d="m1977.34,134.51h163.51V10.78h-163.51v123.73m-1.43,1.09V9.69h166.38v125.9h-166.38Z"/></g><g><polygon class="cls-30" points="3121.51 228.49 2206.56 -119.25 1944.62 -119.25 2859.57 228.49 3121.51 228.49"/><path class="cls-30" d="m1945.76-120.12h259.66l914.95,349.47h-259.66L1945.76-120.12m-2.28,1.72l914.95,346.02h264.22l-914.95-346.02h-264.22Z"/></g><g><rect class="cls-30" x="1819.55" y="-11.12" width="84.98" height="64.3"/><path class="cls-30" d="m1819.92,52.9h84.24V-10.85h-84.24v63.74m-.74.56V-11.4h85.72V53.46h-85.72Z"/></g></g></g><g class="cls-15"><g><g><rect class="cls-12" x="2042.81" y="210.41" width="162.75" height="123.16"/><path class="cls-12" d="m2043.52,333.03h161.33v-122.08h-161.33v122.08m-1.42,1.07v-124.23h164.16v124.23h-164.16Z"/></g><g><rect class="cls-12" x="1453.52" y="-98.27" width="284.02" height="214.92"/><path class="cls-12" d="m1454.75,115.72h281.55V-97.34h-281.55V115.72m-2.47,1.87V-99.21h286.49V117.58h-286.49Z"/></g><g><polygon class="cls-12" points="2590.94 103.49 1676 -257.58 1431.67 -257.58 2346.62 103.49 2590.94 103.49"/><path class="cls-12" d="m1432.74-258.39h242.2l914.95,362.68h-242.2l-914.95-362.68m-2.12,1.61l914.95,359.47h246.45l-914.95-359.47h-246.45Z"/></g><g><rect class="cls-12" x="1110.94" y="213" width="81.66" height="61.8"/><path class="cls-12" d="m1111.29,274.52h80.95v-61.26h-80.95v61.26m-.71.54v-62.33h82.37v62.33h-82.37Z"/></g><g><rect class="cls-12" x="1750.25" y="48.58" width="262.4" height="198.56"/><path class="cls-12" d="m1751.39,246.28h260.11V49.44h-260.11v196.84m-2.28,1.73V47.72h264.68v200.29h-264.68Z"/></g><g><rect class="cls-12" x="2228.62" y="-38.25" width="298.17" height="225.64"/><path class="cls-12" d="m2229.92,186.41h295.58V-37.27h-295.58v223.68m-2.59,1.96V-39.23h300.77v227.6h-300.77Z"/></g><g><rect class="cls-12" x="1328.81" y="-30.4" width="217.68" height="164.73"/><path class="cls-12" d="m1329.76,133.61h215.79V-29.68h-215.79v163.29m-1.89,1.43V-31.12h219.57v166.16h-219.57Z"/></g><g><polygon class="cls-12" points="2289.52 205.84 1374.58 -149.35 1122.47 -149.35 2037.42 205.84 2289.52 205.84"/><path class="cls-12" d="m1123.57-150.18h249.91l914.95,356.85h-249.91l-914.95-356.85m-2.19,1.66l914.95,353.53h254.3l-914.95-353.53h-254.3Z"/></g><g><polygon class="cls-12" points="1729.81 138.46 1729.81 186.53 751.34 -359.43 751.34 -407.5 1729.81 138.46"/><path class="cls-12" d="m751.61-359.64L1729.53,186.32v-47.65L751.61-407.29v47.65m-.55.42v-48.49L1730.08,138.26v48.49L751.06-359.22h0Z"/></g><g><polygon class="cls-12" points="1740.5 187.71 825.55 -236.37 664.49 -236.37 664.49 -358.25 1740.5 187.71"/><path class="cls-12" d="m665.19-236.9h159.66l914.95,425.14L665.19-357.72v120.82m-1.4,1.06v-122.94L1741.2,187.19,826.25-235.84h-162.46Z"/></g><g><polygon class="cls-12" points="1786.2 235.35 871.25 -86.41 574.98 -86.41 574.98 -310.61 1786.2 235.35"/><path class="cls-12" d="m576.27-87.39h293.69l914.95,323.71L576.27-309.64V-87.39m-2.58,1.95v-226.15L1787.49,234.37,872.54-85.44h-298.85Z"/></g><g><rect class="cls-12" x="477.12" y="-110.72" width="242.36" height="183.4"/><path class="cls-12" d="m478.18,71.89h240.26V-109.92h-240.26V71.89m-2.11,1.59V-111.52h244.47V73.48h-244.47Z"/></g></g></g><polyline class="cls-8" points="2088.61 -183.63 2088.61 51.2 1778.29 51.2 1778.29 -183.63"/><polyline class="cls-8" points="2125.78 -114.39 2125.78 120.44 1815.46 120.44 1815.46 -114.39"/><polyline class="cls-8" points="1779.64 50.18 2087.26 50.18 2087.26 -182.61"/><polyline class="cls-8" points="2089.96 -184.65 2089.96 52.22 1776.94 52.22 1776.94 52.22 1776.94 -184.65"/><polyline class="cls-8" points="2481.77 -194.38 2481.77 41.86 2169.59 41.86 2169.59 -194.38"/><polyline class="cls-8" points="2170.95 40.83 2480.41 40.83 2480.41 -193.35"/><polyline class="cls-8" points="2483.12 -195.41 2483.12 42.88 2168.23 42.88 2168.23 42.88 2168.23 -195.41"/><polyline class="cls-16" points="1506.22 -17.62 1506.22 38.23 1432.41 38.23 1432.41 -17.62"/><polyline class="cls-16" points="1432.73 37.99 1505.9 37.99 1505.9 -17.38"/><polyline class="cls-16" points="1506.54 -17.86 1506.54 38.47 1432.09 38.47 1432.09 38.47 1432.09 -17.86"/><polyline class="cls-16" points="2106.29 -46.88 2106.29 102.69 1908.64 102.69 1908.64 -46.88"/><polyline class="cls-16" points="1909.5 102.04 2105.44 102.04 2105.44 -46.23"/><polyline class="cls-16" points="2107.15 -47.53 2107.15 103.34 1907.78 103.34 1907.78 103.34 1907.78 -47.53"/><polyline class="cls-16" points="2333.44 -84.08 2333.44 61.7 2140.79 61.7 2140.79 -84.08"/><polyline class="cls-16" points="2141.63 61.07 2332.61 61.07 2332.61 -83.45"/><polyline class="cls-16" points="2334.28 -84.72 2334.28 62.33 2139.96 62.33 2139.96 62.33 2139.96 -84.72"/><g class="cls-15"><rect class="cls-30" x="1389.78" y="72.35" width="220.42" height="166.8"/><path class="cls-30" d="m1390.74,238.43h218.51V73.08h-218.51v165.35m-1.92,1.45V71.62h222.34v168.25h-222.34Z"/></g><g><rect class="cls-7" x="4061.7" y="168.32" width="312.18" height="236.23"/><path class="cls-7" d="m4063.05,403.53h309.46v-234.18h-309.46v234.18m-2.71,2.05v-238.29h314.89v238.29h-314.89Z"/></g></g><g id="Layer_2_copy"><text class="cls-29" transform="translate(1639.02 189.92)"><tspan x="0" y="0">Insights f</tspan><tspan class="cls-31" x="247.85" y="0">r</tspan><tspan x="267.57" y="0">om the Cook County</tspan><tspan class="cls-26" x="808.71" y="0"> </tspan><tspan class="cls-17" x="822.39" y="0">T</tspan><tspan class="cls-14" x="856" y="0">r</tspan><tspan x="875.74" y="0">easu</tspan><tspan class="cls-14" x="1004.18" y="0">r</tspan><tspan x="1023.93" y="0">e</tspan><tspan class="cls-34" x="1055.71" y="0">r</tspan><tspan class="cls-6" x="1076.48" y="0">&apos;</tspan><tspan x="1084.6" y="0" xml:space="preserve">s Office  </tspan></text><text class="cls-21" transform="translate(1555.53 113.81) scale(1.04 1)"><tspan class="cls-11" x="0" y="0">P</tspan><tspan class="cls-27" x="86.65" y="0">a</tspan><tspan class="cls-9" x="158.66" y="0">p</tspan><tspan class="cls-1" x="235.29" y="0">p</tspan><tspan class="cls-28" x="311.36" y="0">a</tspan><tspan class="cls-25" x="382.84" y="0">s </tspan><tspan class="cls-22" x="488.66" y="0">P</tspan><tspan class="cls-23" x="574.54" y="0">o</tspan><tspan class="cls-20" x="650.48" y="0">s</tspan><tspan class="cls-33" x="720.58" y="0">t</tspan><tspan class="cls-25" x="767.74" y="0">s</tspan></text></g><g id="Layer_4"><g><path class="cls-2" d="m1490.56,62.96h-45.64c.62-9.18,1.06-15.4,1.17-16.33.02-.17.04-.35.07-.56.34-2.74,1.06-8.44-2.77-12.78-2.54-2.87-6.51-4.45-11.82-4.69v-.04h-1.5s0,0,0,0h0s-118.9,0-118.9,0c-15.58,0-21.13,14.05-21.13,27.19h.13c-.08.22-.13.46-.13.7,0,1.41,1.46,2.56,3.26,2.56h26.49c-2.09,30.58-6.83,104.01-6.83,109.18,0,.93-.16,2.28-.33,3.71-.64,5.45-1.52,12.92,3.05,18.06,2.84,3.2,7.31,4.82,13.28,4.82,0,0,0,0,0,0h41.68v7.56h51.04v-44.18h21.61v44.18h17.39v-9.3h40.13l-10.23-130.07Z"/><path d="m1328.71,194.45c6.05,0,11.56-2.84,15.92-8.21,3.81-4.68,5.7-9.99,6.2-13.39l-6.44-.95c-.8,5.42-6.38,16.03-15.68,16.03-4.03,0-6.86-.89-8.41-2.64-2.62-2.95-1.97-8.51-1.44-12.97.19-1.62.37-3.16.37-4.46,0-6.38,7.27-117.37,7.74-121.56.02-.17.04-.35.07-.56.34-2.74,1.06-8.44-2.77-12.78-2.77-3.14-7.25-4.73-13.32-4.73-15.58,0-21.13,14.05-21.13,27.19h6.51c0-6.22,1.42-20.68,14.62-20.68,2.83,0,6.6.44,8.44,2.53,1.89,2.14,1.45,5.6,1.2,7.66-.03.24-.06.46-.08.65-.47,4.21-7.77,115.85-7.78,122.27,0,.93-.16,2.28-.33,3.71-.64,5.45-1.52,12.92,3.05,18.06,2.84,3.2,7.31,4.82,13.28,4.82Z"/><path d="m1437.68,150.42c.18,1.19.33,2.38.46,3.57.13-.07.28-.13.43-.17.09-.12.19-.24.31-.34,1.87-31.66,6.62-103.81,6.99-107.17.02-.17.04-.35.07-.56.34-2.74,1.06-8.44-2.77-12.78-2.77-3.14-7.25-4.73-13.32-4.73l1.51,5.58c2.83,0,5.09,1.37,6.94,3.46,1.89,2.14,1.45,5.6,1.2,7.66-.03.24-.06.46-.08.65-.37,3.36-5.11,75.31-7,107.37.26-.85.53-1.7.81-2.54.65-1.96,4.12-2.44,4.49,0Z"/><rect x="1310.93" y="28.24" width="120.41" height="5.58"/><path d="m1293.06,58.68h29.88c1.8,0,3.26-1.15,3.26-2.56s-1.46-2.56-3.26-2.56h-29.88c-1.8,0-3.26,1.15-3.26,2.56s1.46,2.56,3.26,2.56Z"/><path d="m1422.84,189.47c.15-.51.27-1.02.37-1.54h-.32c-.02.51-.04,1.03-.05,1.54Z"/><path d="m1444.49,187.94h-.12c-.02,2.19-.17,4.36-.47,6.51h.19c.34-2.13.45-4.33.4-6.51Z"/><path d="m1449.32,188.42c.01,1.94-.1,3.86-.37,5.73,1.13-.51,1.92-1.64,1.92-2.97,0-1.17-.62-2.19-1.55-2.77Z"/><path d="m1418.23,187.94h-89.52c-1.8,0-3.26,1.46-3.26,3.26s1.46,3.26,3.26,3.26h89.38c.03-2.17.07-4.34.14-6.51Z"/><g><path d="m1377.7,166.73h-46.47c-3.51,0-6.17-2.72-5.94-6.07l7.96-111.74c.24-3.35,3.29-6.07,6.8-6.07h28.79c3.51,0,6.17,2.72,5.94,6.07l-.64,9.03c-.14,1.94,1.4,3.52,3.44,3.52h42.4c3.51,0,6.17,2.72,5.94,6.07l-6.18,86.74c-.24,3.35-3.29,6.07-6.8,6.07h-32.39c-.11.46-.15,1.33-.18,1.89-.07,1.56-.14,3.03-1.1,3.9-.43.39-.97.6-1.57.6Zm-37.82-121.33c-2.03,0-3.8,1.58-3.94,3.52l-7.96,111.74c-.14,1.94,1.4,3.52,3.44,3.52h46.09c.11-.46.15-1.33.18-1.89.07-1.56.14-3.03,1.1-3.9.43-.39.97-.6,1.57-.6h32.77c2.03,0,3.8-1.58,3.94-3.52l6.18-86.74c.14-1.94-1.4-3.52-3.44-3.52h-42.4c-3.51,0-6.17-2.72-5.94-6.07l.64-9.03c.14-1.94-1.4-3.52-3.44-3.52h-28.79Z"/><path d="m1414.95,74.42h-72.77c-1.11,0-1.95-.86-1.87-1.92s1.04-1.92,2.15-1.92h72.77c1.11,0,1.95.86,1.87,1.92s-1.04,1.92-2.15,1.92Z"/><g><path d="m1414.44,81.62h-72.77c-.65,0-1.14-.5-1.09-1.12s.61-1.12,1.25-1.12h72.77c.65,0,1.14.5,1.09,1.12s-.61,1.12-1.25,1.12Z"/><path d="m1413.98,88.01h-72.77c-.65,0-1.14-.5-1.09-1.12s.61-1.12,1.25-1.12h72.77c.65,0,1.14.5,1.09,1.12s-.61,1.12-1.25,1.12Z"/><path d="m1413.53,94.4h-72.77c-.65,0-1.14-.5-1.09-1.12s.61-1.12,1.25-1.12h72.77c.65,0,1.14.5,1.09,1.12s-.61,1.12-1.25,1.12Z"/><path d="m1413.07,100.79h-72.77c-.65,0-1.14-.5-1.09-1.12s.61-1.12,1.25-1.12h72.77c.65,0,1.14.5,1.09,1.12s-.61,1.12-1.25,1.12Z"/></g><path d="m1412.44,109.58h-72.77c-1.11,0-1.95-.86-1.87-1.92s1.04-1.92,2.15-1.92h72.77c1.11,0,1.95.86,1.87,1.92s-1.04,1.92-2.15,1.92Z"/></g><g><line class="cls-4" x1="1472.06" y1="62.64" x2="1472.06" y2="16"/><line class="cls-4" x1="1452.53" y1="62.64" x2="1452.53" y2="16"/></g><path d="m1465.4,171.3l-6.14,2.15c1.45,4.12.77,8.46-1.8,11.61-1.37,1.68-4.11,2.63-8.15,2.83.04,2.22-.08,4.4-.41,6.53,6.43-.2,10.88-1.92,13.59-5.24,4.02-4.92,5.1-11.6,2.9-17.88Z"/><path d="m1418.92,169.12h-71.31c-1.8,0-3.26,1.46-3.26,3.26s1.46,3.26,3.26,3.26h71.09c.09-2.17.16-4.34.22-6.51Z"/><path d="m1462.33,169.12h-13.72c.89.5,1.44,1.48,1.12,2.6-.38,1.3-.77,2.61-1.2,3.91h13.81c1.8,0,3.26-1.46,3.26-3.26s-1.46-3.26-3.26-3.26Z"/><path class="cls-3" d="m1437.68,150.42c.18,1.19.33,2.38.46,3.57.13-.07.28-.13.43-.17,1.03-1.43,3.66-1.57,4.13.61.97,4.45,2.34,9.3,3.58,14.3.4,0,.8.02,1.2.05,1.47.11,2.69,1.4,2.24,2.94-.5,1.73-1.03,3.46-1.63,5.18,1,5.34,1.55,10.7,1.03,15.8h51.45l-10.23-130.07h-56.08l-7.29,92.7c1.27-.92,3.24-.75,3.69,1.09.09.37.17.75.26,1.12.03.04.05.08.08.12.69-2.43,1.41-4.86,2.2-7.26.65-1.96,4.12-2.44,4.49,0Z"/><path class="cls-3" d="m1444.38,185.49s-.02.03-.02.05c.07,2.41,0,4.8-.24,7.17h.21c.24-2.39.23-4.82.05-7.22Z"/><polygon class="cls-3" points="1358.35 146.18 1363.53 153.6 1370.39 147.86 1370.39 202.01 1421.43 202.01 1421.43 157.83 1443.05 157.83 1443.05 202.01 1460.43 202.01 1460.43 147.86 1467.29 153.6 1472.48 146.18 1415.29 101.68 1394.08 118.35 1394.08 100.64 1382.35 100.64 1382.35 127.36 1358.35 146.18"/><rect class="cls-3" x="1380.44" y="152.25" width="28.39" height="24.86"/><line class="cls-5" x1="1382.22" y1="47.48" x2="1423" y2="47.86"/></g></g><g id="Layer_6"><text class="cls-32" transform="translate(1349.52 63.01)"><tspan x="0" y="0">$</tspan></text></g></g></svg>