<?xml version="1.0" encoding="UTF-8"?><svg xmlns="http://www.w3.org/2000/svg" xmlns:xlink="http://www.w3.org/1999/xlink" viewBox="0 0 4189 218"><defs><style>.cls-1,.cls-2{fill:#fff;}.cls-2,.cls-3{stroke-width:6.98px;}.cls-2,.cls-3,.cls-4{stroke:#000;}.cls-2,.cls-4{stroke-linejoin:round;}.cls-5,.cls-6{fill:#587594;}.cls-7{isolation:isolate;}.cls-8{fill:#896da2;}.cls-9{opacity:.63;}.cls-3{stroke-miterlimit:10;}.cls-3,.cls-4{fill:none;}.cls-6,.cls-10{opacity:.42;}.cls-6,.cls-10,.cls-11{mix-blend-mode:multiply;}.cls-12,.cls-11{fill:#759ac1;}.cls-13{fill:#272727;}.cls-14{fill:#d15050;}.cls-4{stroke-linecap:round;stroke-width:2.79px;}.cls-15{fill:#3074b1;}.cls-16{font-family:Roboto-BoldCondensedItalic, Roboto;font-size:19px;font-style:italic;font-weight:700;}.cls-11{opacity:.19;}</style><symbol id="New_Symbol" viewBox="0 0 45 45"><g><rect class="cls-1" x=".5" y=".5" width="44" height="44"/><path d="m44,1v43H1V1h43m1-1H0v45h45V0h0Z"/></g></symbol></defs><g class="cls-7"><g id="Layer_1" class="cls-9"><g><polygon class="cls-8" points="535.75 279.88 -379.2 -104.42 -592.83 -104.42 322.11 279.88 535.75 279.88"/><path class="cls-8" d="m370.09-105.12h211.78l414.95,385.7h-211.78L-129.91-105.12m769.51,1.65l143.58,382.64h215.49L733.73-103.72h-215.49l121.36.25Z"/></g><use width="45" height="45" transform="translate(1616.79 224.34) rotate(-180) scale(.95 .72)" xlink:href="#New_Symbol"/><g class="cls-10"><rect class="cls-12" x="2853.88" y="57.02" width="110.56" height="83.66"/><g><rect class="cls-13" x="2844.83" y="-44.61" width="133.33" height="100.9"/><path d="m2845.41,55.85h132.18V-44.17h-132.18V55.85m-1.16.88V-45.05h134.49V56.73h-134.49Z"/></g></g><g class="cls-10"><g><g><rect class="cls-5" x="2093.9" y="-75.55" width="310.4" height="234.89"/><path class="cls-5" d="m2095.25,158.32h307.7V-74.53h-307.7v232.85m-2.7,2.04V-76.57h313.1v236.93h-313.1Z"/></g><g><rect class="cls-5" x="3952.09" y="154.88" width="312.18" height="236.23"/><path class="cls-5" d="m3953.45,390.09h309.46v-234.18h-309.46v234.18m-2.71,2.05v-238.29h314.89v238.29h-314.89Z"/></g><g><rect class="cls-5" x="3952.09" y="154.88" width="312.18" height="236.23"/><path class="cls-5" d="m3953.45,390.09h309.46v-234.18h-309.46v234.18m-2.71,2.05v-238.29h314.89v238.29h-314.89Z"/></g></g></g><g class="cls-10"><g><rect class="cls-12" x="2134.24" y="54.87" width="303.04" height="229.32"/><path class="cls-12" d="m2135.55,283.19h300.4V55.87h-300.4v227.32m-2.64,1.99V53.87h305.67v231.31h-305.67Z"/></g><g><rect class="cls-12" x="1876.03" y="-144.53" width="219.61" height="166.19"/><path class="cls-12" d="m1876.99,20.94h217.71v-164.74h-217.71V20.94m-1.91,1.45v-167.63h221.52V22.39h-221.52Z"/></g><g><rect class="cls-12" x="2643.68" y="27.42" width="257.76" height="195.06"/><path class="cls-12" d="m2644.8,221.63h255.52V28.27h-255.52v193.36m-2.24,1.7V26.57h260v196.75h-260Z"/></g><g><rect class="cls-12" x="1431.31" y="209.07" width="191.44" height="144.87"/><path class="cls-12" d="m1432.14,353.31h189.78v-143.61h-189.78v143.61m-1.66,1.26v-146.13h193.11v146.13h-193.11Z"/></g><g><rect class="cls-12" x="1250.89" y="26.89" width="131.12" height="99.22"/><path class="cls-12" d="m1251.46,125.68h129.98V27.32h-129.98v98.36m-1.14.86V26.46h132.26v100.08h-132.26Z"/></g><g><rect class="cls-12" x="1022.16" y="178.74" width="270.91" height="205.01"/><path class="cls-12" d="m1023.34,382.86h268.56v-203.23h-268.56v203.23m-2.36,1.78v-206.79h273.27v206.79h-273.27Z"/></g><g><rect class="cls-12" x="1623.54" y="59.36" width="74.07" height="56.05"/><path class="cls-12" d="m1623.86,115.16h73.42v-55.56h-73.42v55.56m-.64.49v-56.53h74.71v56.53h-74.71Z"/></g></g><g class="cls-10"><g><g><rect class="cls-14" x="2702.54" y="108.76" width="314.38" height="237.9"/><path class="cls-14" d="m2703.91,345.63h311.65V109.79h-311.65v235.84m-2.73,2.07V107.72h317.12v239.97h-317.12Z"/></g><g><rect class="cls-14" x="2506.43" y="-67.12" width="232.95" height="176.28"/><path class="cls-14" d="m2507.44,108.39h230.92V-66.35h-230.92V108.39m-2.03,1.53V-67.88h234.97V109.93h-234.97Z"/></g><g><rect class="cls-14" x="3303.77" y="-38.43" width="228.07" height="172.59"/><path class="cls-14" d="m3304.76,133.41h226.08V-37.68h-226.08v171.08m-1.98,1.5V-39.18h230.05v174.09h-230.05Z"/></g><g><rect class="cls-14" x="3143.45" y="145.19" width="61" height="46.16"/><path class="cls-14" d="m3143.72,191.15h60.47v-45.76h-60.47v45.76m-.53.4v-46.56h61.53v46.56h-61.53Z"/></g><g><rect class="cls-14" x="2188.84" y="118.75" width="153.9" height="116.46"/><path class="cls-14" d="m2189.51,234.71h152.56v-115.45h-152.56v115.45m-1.34,1.01v-117.48h155.24v117.48h-155.24Z"/></g><g><rect class="cls-14" x="2499.42" y="191.04" width="172.07" height="130.21"/><path class="cls-14" d="m2500.17,320.69h170.57v-129.08h-170.57v129.08m-1.5,1.13v-131.34h173.57v131.34h-173.57Z"/></g><g><polygon class="cls-14" points="3725.15 237.35 2810.2 -146.95 2596.57 -146.95 3511.51 237.35 3725.15 237.35"/><path class="cls-14" d="m2597.49-147.65h211.78l914.95,385.7h-211.78l-914.95-385.7m-1.86,1.41l914.95,382.89h215.49l-914.95-382.89h-215.49Z"/></g></g></g><g class="cls-10"><g><g><rect class="cls-14" x="1597.2" y="98.04" width="232.95" height="176.28"/><path class="cls-14" d="m1598.21,273.55h230.92V98.81h-230.92v174.75m-2.03,1.53V97.27h234.97v177.81h-234.97Z"/></g><g><polygon class="cls-14" points="2622.61 126.73 1707.66 -246.65 1479.59 -246.65 2394.54 126.73 2622.61 126.73"/><path class="cls-14" d="m1480.58-247.4h226.08l914.95,374.88h-226.08l-914.95-374.88m-1.98,1.5l914.95,371.88h230.05l-914.95-371.88h-230.05Z"/></g><g><rect class="cls-14" x="1687.34" y="-143.46" width="213.64" height="161.67"/><path class="cls-14" d="m1688.27,17.51h211.78v-160.26h-211.78V17.51m-1.86,1.41v-163.07h215.49V18.91h-215.49Z"/></g></g></g><g class="cls-10"><g><g><rect class="cls-15" x="1595.63" y="151.76" width="146.97" height="111.22"/><path class="cls-15" d="m1596.27,262.49h145.69v-110.25h-145.69v110.25m-1.28.97v-112.18h148.25v112.18h-148.25Z"/></g><g><rect class="cls-15" x="1826.62" y="-8.11" width="128.84" height="97.5"/><path class="cls-15" d="m1827.18,88.97h127.72V-7.68h-127.72v96.65m-1.12.85V-8.53h129.96v98.34h-129.96Z"/></g><g><rect class="cls-15" x="1944.23" y="99.15" width="131.95" height="99.85"/><path class="cls-15" d="m1944.8,198.57h130.8v-98.98h-130.8v98.98m-1.15.87v-100.72h133.09v100.72h-133.09Z"/></g><g><rect class="cls-15" x="2062.44" y="43.57" width="276.44" height="209.19"/><path class="cls-15" d="m2063.64,251.86h274.04V44.48h-274.04v207.38m-2.4,1.82V42.66h278.85v211.01h-278.85Z"/></g><g><rect class="cls-15" x="2335.59" y="14.49" width="223.58" height="169.19"/><path class="cls-15" d="m2336.56,182.95h221.63V15.23h-221.63v167.72m-1.94,1.47V13.76h225.52v170.66h-225.52Z"/></g><g><rect class="cls-15" x="3534.96" y="71.73" width="61.8" height="46.77"/><path class="cls-15" d="m3535.23,118.3h61.27v-46.36h-61.27v46.36m-.54.41v-47.18h62.34v47.18h-62.34Z"/></g><g><rect class="cls-15" x="2130.82" y="-84.77" width="206.6" height="156.34"/><path class="cls-15" d="m2131.72,70.88h204.8V-84.09h-204.8V70.88m-1.8,1.36V-85.45h208.39V72.24h-208.39Z"/></g><g><polygon class="cls-15" points="3112.42 234.24 2197.48 -214.86 2069.48 -214.86 2984.43 234.24 3112.42 234.24"/><path class="cls-15" d="m2070.04-215.28h126.89l914.95,449.94h-126.89l-914.95-449.94m-1.11.84l914.95,448.26h129.11l-914.95-448.26h-129.11Z"/></g><g><rect class="cls-15" x="1866.62" y="10.23" width="164.94" height="124.82"/><path class="cls-15" d="m1867.34,134.51h163.51V10.78h-163.51v123.73m-1.43,1.09V9.69h166.38v125.9h-166.38Z"/></g><g><polygon class="cls-15" points="3011.51 228.49 2096.56 -119.25 1834.62 -119.25 2749.57 228.49 3011.51 228.49"/><path class="cls-15" d="m1835.76-120.12h259.66l914.95,349.47h-259.66L1835.76-120.12m-2.28,1.72l914.95,346.02h264.22l-914.95-346.02h-264.22Z"/></g><g><rect class="cls-15" x="1709.55" y="-11.12" width="84.98" height="64.3"/><path class="cls-15" d="m1709.92,52.9h84.24V-10.85h-84.24v63.74m-.74.56V-11.4h85.72V53.46h-85.72Z"/></g></g></g><g class="cls-10"><g><g><rect class="cls-8" x="1957.81" y="182.41" width="162.75" height="123.16"/><path class="cls-8" d="m1958.52,305.03h161.33v-122.08h-161.33v122.08m-1.42,1.07v-124.23h164.16v124.23h-164.16Z"/></g><g><rect class="cls-8" x="1368.52" y="-126.27" width="284.02" height="214.92"/><path class="cls-8" d="m1369.75,87.72h281.55V-125.34h-281.55V87.72m-2.47,1.87V-127.21h286.49V89.58h-286.49Z"/></g><g><polygon class="cls-8" points="2505.94 75.49 1591 -285.58 1346.67 -285.58 2261.62 75.49 2505.94 75.49"/><path class="cls-8" d="m1347.74-286.39h242.2l914.95,362.68h-242.2l-914.95-362.68m-2.12,1.61l914.95,359.47h246.45l-914.95-359.47h-246.45Z"/></g><g><rect class="cls-8" x="1025.94" y="185" width="81.66" height="61.8"/><path class="cls-8" d="m1026.29,246.52h80.95v-61.26h-80.95v61.26m-.71.54v-62.33h82.37v62.33h-82.37Z"/></g><g><rect class="cls-8" x="1665.25" y="20.58" width="262.4" height="198.56"/><path class="cls-8" d="m1666.39,218.28h260.11V21.44h-260.11v196.84m-2.28,1.73V19.72h264.68v200.29h-264.68Z"/></g><g><rect class="cls-8" x="2143.62" y="-66.25" width="298.17" height="225.64"/><path class="cls-8" d="m2144.92,158.41h295.58V-65.27h-295.58v223.68m-2.59,1.96V-67.23h300.77v227.6h-300.77Z"/></g><g><rect class="cls-8" x="1243.81" y="-58.4" width="217.68" height="164.73"/><path class="cls-8" d="m1244.76,105.61h215.79V-57.68h-215.79V105.61m-1.89,1.43V-59.12h219.57V107.04h-219.57Z"/></g><g><polygon class="cls-8" points="2204.52 177.84 1289.58 -177.35 1037.47 -177.35 1952.42 177.84 2204.52 177.84"/><path class="cls-8" d="m1038.57-178.18h249.91l914.95,356.85h-249.91l-914.95-356.85m-2.19,1.66l914.95,353.53h254.3l-914.95-353.53h-254.3Z"/></g><g><polygon class="cls-8" points="1644.81 110.46 1644.81 158.53 666.34 -387.43 666.34 -435.5 1644.81 110.46"/><path class="cls-8" d="m666.61-387.64L1644.53,158.32v-47.65L666.61-435.29v47.65m-.55.42v-48.49L1645.08,110.26v48.49L666.06-387.22h0Z"/></g><g><polygon class="cls-8" points="1655.5 159.71 740.55 -264.37 579.49 -264.37 579.49 -386.25 1655.5 159.71"/><path class="cls-8" d="m580.19-264.9h159.66l914.95,425.14L580.19-385.72v120.82m-1.4,1.06v-122.94L1656.2,159.19l-914.95-423.02h-162.46Z"/></g><g><polygon class="cls-8" points="1701.2 207.35 786.25 -114.41 489.98 -114.41 489.98 -338.61 1701.2 207.35"/><path class="cls-8" d="m491.27-115.39h293.69l914.95,323.71L491.27-337.64V-115.39m-2.58,1.95v-226.15L1702.49,206.37,787.54-113.44h-298.85Z"/></g><g><rect class="cls-8" x="392.12" y="-138.72" width="242.36" height="183.4"/><path class="cls-8" d="m393.18,43.89h240.26v-181.81h-240.26V43.89m-2.11,1.59v-185h244.47V45.48h-244.47Z"/></g></g></g><polyline class="cls-6" points="1978.61 -183.63 1978.61 51.2 1668.29 51.2 1668.29 -183.63"/><polyline class="cls-6" points="2015.78 -114.39 2015.78 120.44 1705.46 120.44 1705.46 -114.39"/><polyline class="cls-6" points="1669.64 50.18 1977.26 50.18 1977.26 -182.61"/><polyline class="cls-6" points="1979.96 -184.65 1979.96 52.22 1666.94 52.22 1666.94 52.22 1666.94 -184.65"/><polyline class="cls-6" points="2371.77 -194.38 2371.77 41.86 2059.59 41.86 2059.59 -194.38"/><polyline class="cls-6" points="2060.95 40.83 2370.41 40.83 2370.41 -193.35"/><polyline class="cls-6" points="2373.12 -195.41 2373.12 42.88 2058.23 42.88 2058.23 42.88 2058.23 -195.41"/><polyline class="cls-11" points="1396.22 -17.62 1396.22 38.23 1322.41 38.23 1322.41 -17.62"/><polyline class="cls-11" points="1322.73 37.99 1395.9 37.99 1395.9 -17.38"/><polyline class="cls-11" points="1396.54 -17.86 1396.54 38.47 1322.09 38.47 1322.09 38.47 1322.09 -17.86"/><polyline class="cls-11" points="1996.29 -46.88 1996.29 102.69 1798.64 102.69 1798.64 -46.88"/><polyline class="cls-11" points="1799.5 102.04 1995.44 102.04 1995.44 -46.23"/><polyline class="cls-11" points="1997.15 -47.53 1997.15 103.34 1797.78 103.34 1797.78 103.34 1797.78 -47.53"/><polyline class="cls-11" points="2223.44 -84.08 2223.44 61.7 2030.79 61.7 2030.79 -84.08"/><polyline class="cls-11" points="2031.63 61.07 2222.61 61.07 2222.61 -83.45"/><polyline class="cls-11" points="2224.28 -84.72 2224.28 62.33 2029.96 62.33 2029.96 62.33 2029.96 -84.72"/><g class="cls-10"><rect class="cls-15" x="1279.78" y="72.35" width="220.42" height="166.8"/><path class="cls-15" d="m1280.74,238.43h218.51V73.08h-218.51v165.35m-1.92,1.45V71.62h222.34v168.25h-222.34Z"/></g></g><g id="Layer_2_copy"><g><g><path d="m1519.21,73.92v29.85h-22.12V15.8h36.61c7.01,0,13.22,1.24,18.62,3.72,5.4,2.48,9.58,6,12.54,10.57,2.96,4.57,4.44,9.76,4.44,15.56,0,8.58-3.2,15.44-9.61,20.57-6.41,5.14-15.2,7.7-26.37,7.7h-14.11Zm0-16.37h14.49c4.28,0,7.55-1.03,9.8-3.08,2.25-2.05,3.37-4.95,3.37-8.7,0-4.11-1.16-7.39-3.47-9.85-2.31-2.46-5.46-3.71-9.45-3.75h-14.74v25.38Z"/><path d="m1617.82,103.77c-.76-1.33-1.43-3.28-2.02-5.86-3.91,4.71-9.37,7.07-16.38,7.07-6.43,0-11.89-1.86-16.38-5.59-4.5-3.73-6.74-8.41-6.74-14.05,0-7.09,2.73-12.45,8.19-16.07,5.46-3.63,13.4-5.44,23.82-5.44h6.55v-3.46c0-6.03-2.71-9.05-8.13-9.05-5.04,0-7.56,2.39-7.56,7.16h-21.23c0-6.31,2.8-11.45,8.41-15.39,5.61-3.94,12.76-5.92,21.45-5.92s15.56,2.03,20.6,6.1c5.04,4.07,7.62,9.65,7.75,16.74v28.94c.08,6,1.05,10.59,2.9,13.78v1.03h-21.23Zm-13.29-13.29c2.65,0,4.84-.54,6.58-1.63,1.74-1.09,2.99-2.32,3.75-3.69v-10.45h-6.17c-7.39,0-11.09,3.18-11.09,9.55,0,1.85.65,3.35,1.95,4.5,1.3,1.15,2.96,1.72,4.98,1.72Z"/><path d="m1711.2,71.57c0,10.15-2.38,18.26-7.15,24.32-4.77,6.06-11.21,9.09-19.31,9.09-6.26,0-11.4-2.2-15.44-6.59v30.51h-21.23V38.4h19.85l.63,6.04c4.07-4.83,9.43-7.25,16.07-7.25,8.4,0,14.93,2.97,19.6,8.91,4.66,5.94,6.99,14.11,6.99,24.5v.97Zm-21.23-1.27c0-11.6-3.53-17.4-10.59-17.4-5.04,0-8.4,1.73-10.08,5.2v25.74c1.85,3.63,5.25,5.44,10.21,5.44,6.76,0,10.25-5.6,10.46-16.8v-2.18Z"/><path d="m1783.85,71.57c0,10.15-2.38,18.26-7.15,24.32-4.77,6.06-11.21,9.09-19.31,9.09-6.26,0-11.4-2.2-15.44-6.59v30.51h-21.23V38.4h19.85l.63,6.04c4.07-4.83,9.43-7.25,16.07-7.25,8.4,0,14.93,2.97,19.6,8.91,4.66,5.94,6.99,14.11,6.99,24.5v.97Zm-21.23-1.27c0-11.6-3.53-17.4-10.59-17.4-5.04,0-8.4,1.73-10.08,5.2v25.74c1.85,3.63,5.25,5.44,10.21,5.44,6.76,0,10.25-5.6,10.46-16.8v-2.18Z"/><path d="m1831.61,103.77c-.76-1.33-1.43-3.28-2.02-5.86-3.91,4.71-9.37,7.07-16.38,7.07-6.43,0-11.89-1.86-16.38-5.59-4.5-3.73-6.74-8.41-6.74-14.05,0-7.09,2.73-12.45,8.19-16.07,5.46-3.63,13.4-5.44,23.82-5.44h6.55v-3.46c0-6.03-2.71-9.05-8.13-9.05-5.04,0-7.56,2.39-7.56,7.16h-21.23c0-6.31,2.8-11.45,8.41-15.39,5.61-3.94,12.76-5.92,21.45-5.92s15.56,2.03,20.6,6.1c5.04,4.07,7.62,9.65,7.75,16.74v28.94c.08,6,1.05,10.59,2.9,13.78v1.03h-21.23Zm-13.29-13.29c2.65,0,4.84-.54,6.58-1.63,1.74-1.09,2.99-2.32,3.75-3.69v-10.45h-6.17c-7.39,0-11.09,3.18-11.09,9.55,0,1.85.65,3.35,1.95,4.5,1.3,1.15,2.96,1.72,4.98,1.72Z"/><path d="m1897.4,85.4c0-1.73-.94-3.12-2.84-4.17s-5.48-2.14-10.77-3.26c-5.29-1.13-9.66-2.61-13.11-4.44-3.44-1.83-6.07-4.06-7.88-6.68-1.81-2.62-2.71-5.62-2.71-9,0-6,2.58-10.95,7.75-14.83,5.17-3.89,11.93-5.83,20.29-5.83,8.99,0,16.21,1.95,21.68,5.86,5.46,3.91,8.19,9.04,8.19,15.41h-21.3c0-5.24-2.88-7.85-8.63-7.85-2.23,0-4.1.59-5.61,1.78-1.51,1.19-2.27,2.67-2.27,4.44s.92,3.28,2.77,4.41c1.85,1.13,4.8,2.05,8.85,2.78,4.05.73,7.61,1.59,10.68,2.6,10.25,3.38,15.37,9.45,15.37,18.19,0,5.96-2.76,10.81-8.29,14.56-5.52,3.75-12.68,5.62-21.45,5.62-5.84,0-11.05-1.01-15.63-3.02-4.58-2.01-8.15-4.75-10.71-8.22-2.56-3.46-3.84-7.11-3.84-10.94h19.85c.08,3.02,1.13,5.23,3.15,6.62,2.02,1.39,4.6,2.08,7.75,2.08,2.9,0,5.07-.56,6.52-1.69,1.45-1.13,2.17-2.6,2.17-4.41Z"/></g><g><path d="m1575.63,174.34v29.85h-22.12v-87.97h36.61c7.01,0,13.22,1.24,18.62,3.72,5.4,2.48,9.58,6,12.54,10.57,2.96,4.57,4.44,9.76,4.44,15.56,0,8.58-3.2,15.44-9.61,20.57-6.41,5.14-15.2,7.7-26.37,7.7h-14.11Zm0-16.37h14.49c4.28,0,7.55-1.03,9.8-3.08,2.25-2.05,3.37-4.95,3.37-8.7,0-4.11-1.16-7.39-3.47-9.85-2.31-2.46-5.46-3.71-9.45-3.75h-14.74v25.38Z"/><path d="m1630.03,170.9c0-6.53,1.32-12.34,3.97-17.43,2.65-5.1,6.45-9.01,11.4-11.75,4.96-2.74,10.77-4.11,17.45-4.11,10.21,0,18.25,3.03,24.13,9.09,5.88,6.06,8.82,14.31,8.82,24.74v.73c0,10.19-2.95,18.28-8.85,24.26-5.9,5.98-13.89,8.97-23.97,8.97s-17.5-2.79-23.38-8.37c-5.88-5.58-9.05-13.14-9.51-22.69l-.06-3.44Zm21.23,1.27c0,6.04.99,10.47,2.96,13.29,1.97,2.82,4.89,4.23,8.76,4.23,7.56,0,11.42-5.58,11.59-16.74v-2.05c0-11.72-3.91-17.58-11.72-17.58-7.1,0-10.94,5.06-11.53,15.17l-.06,3.69Z"/><path d="m1740.86,185.82c0-1.73-.94-3.12-2.84-4.17-1.89-1.05-5.48-2.13-10.77-3.26-5.29-1.13-9.66-2.61-13.11-4.44-3.44-1.83-6.07-4.06-7.88-6.68-1.81-2.62-2.71-5.62-2.71-9,0-6,2.58-10.95,7.75-14.83,5.17-3.89,11.93-5.83,20.29-5.83,8.99,0,16.21,1.95,21.68,5.86,5.46,3.91,8.19,9.04,8.19,15.41h-21.3c0-5.24-2.88-7.85-8.63-7.85-2.23,0-4.1.59-5.61,1.78-1.51,1.19-2.27,2.67-2.27,4.44s.92,3.28,2.77,4.41c1.85,1.13,4.8,2.05,8.85,2.78,4.05.73,7.61,1.59,10.68,2.6,10.25,3.38,15.37,9.45,15.37,18.19,0,5.96-2.76,10.82-8.29,14.56-5.52,3.75-12.68,5.62-21.45,5.62-5.84,0-11.05-1.01-15.63-3.02-4.58-2.01-8.15-4.75-10.71-8.22-2.56-3.46-3.84-7.11-3.84-10.94h19.85c.08,3.02,1.13,5.23,3.15,6.62,2.02,1.39,4.6,2.08,7.75,2.08,2.9,0,5.07-.56,6.52-1.69s2.17-2.6,2.17-4.41Z"/><path d="m1796,122.56v16.25h11.22v14.14h-11.22v29.91c0,2.46.46,4.17,1.39,5.14.92.97,2.75,1.45,5.48,1.45,2.1,0,3.86-.12,5.29-.36v14.56c-3.82,1.17-7.81,1.75-11.97,1.75-7.31,0-12.71-1.65-16.19-4.95-3.49-3.3-5.23-8.32-5.23-15.04v-32.45h-8.7v-14.14h8.7v-16.25h21.23Z"/><path d="m1851.25,185.82c0-1.73-.94-3.12-2.84-4.17-1.89-1.05-5.48-2.13-10.77-3.26-5.29-1.13-9.66-2.61-13.11-4.44-3.44-1.83-6.07-4.06-7.88-6.68-1.81-2.62-2.71-5.62-2.71-9,0-6,2.58-10.95,7.75-14.83,5.17-3.89,11.93-5.83,20.29-5.83,8.99,0,16.21,1.95,21.68,5.86,5.46,3.91,8.19,9.04,8.19,15.41h-21.3c0-5.24-2.88-7.85-8.63-7.85-2.23,0-4.1.59-5.61,1.78-1.51,1.19-2.27,2.67-2.27,4.44s.92,3.28,2.77,4.41c1.85,1.13,4.8,2.05,8.85,2.78,4.05.73,7.61,1.59,10.68,2.6,10.25,3.38,15.37,9.45,15.37,18.19,0,5.96-2.76,10.82-8.29,14.56-5.52,3.75-12.68,5.62-21.45,5.62-5.84,0-11.05-1.01-15.63-3.02-4.58-2.01-8.15-4.75-10.71-8.22-2.56-3.46-3.84-7.11-3.84-10.94h19.85c.08,3.02,1.13,5.23,3.15,6.62,2.02,1.39,4.6,2.08,7.75,2.08,2.9,0,5.07-.56,6.52-1.69s2.17-2.6,2.17-4.41Z"/></g></g></g><g id="Layer_4"><g><path class="cls-1" d="m1380.56,62.96h-45.64c.62-9.18,1.06-15.4,1.17-16.33.02-.17.04-.35.07-.56.34-2.74,1.06-8.44-2.77-12.78-2.54-2.87-6.51-4.45-11.82-4.69v-.04h-1.5s0,0,0,0h0s-118.9,0-118.9,0c-15.58,0-21.13,14.05-21.13,27.19h.13c-.08.22-.13.46-.13.7,0,1.41,1.46,2.56,3.26,2.56h26.49c-2.09,30.58-6.83,104.01-6.83,109.18,0,.93-.16,2.28-.33,3.71-.64,5.45-1.52,12.92,3.05,18.06,2.84,3.2,7.31,4.82,13.28,4.82,0,0,0,0,0,0h41.68v7.56h51.04v-44.18h21.61v44.18h17.39v-9.3h40.13l-10.23-130.07Z"/><path d="m1218.71,194.45c6.05,0,11.56-2.84,15.92-8.21,3.81-4.68,5.7-9.99,6.2-13.39l-6.44-.95c-.8,5.42-6.38,16.03-15.68,16.03-4.03,0-6.86-.89-8.41-2.64-2.62-2.95-1.97-8.51-1.44-12.97.19-1.62.37-3.16.37-4.46,0-6.38,7.27-117.37,7.74-121.56.02-.17.04-.35.07-.56.34-2.74,1.06-8.44-2.77-12.78-2.77-3.14-7.25-4.73-13.32-4.73-15.58,0-21.13,14.05-21.13,27.19h6.51c0-6.22,1.42-20.68,14.62-20.68,2.83,0,6.6.44,8.44,2.53,1.89,2.14,1.45,5.6,1.2,7.66-.03.24-.06.46-.08.65-.47,4.21-7.77,115.85-7.78,122.27,0,.93-.16,2.28-.33,3.71-.64,5.45-1.52,12.92,3.05,18.06,2.84,3.2,7.31,4.82,13.28,4.82Z"/><path d="m1327.68,150.42c.18,1.19.33,2.38.46,3.57.13-.07.28-.13.43-.17.09-.12.19-.24.31-.34,1.87-31.66,6.62-103.81,6.99-107.17.02-.17.04-.35.07-.56.34-2.74,1.06-8.44-2.77-12.78-2.77-3.14-7.25-4.73-13.32-4.73l1.51,5.58c2.83,0,5.09,1.37,6.94,3.46,1.89,2.14,1.45,5.6,1.2,7.66-.03.24-.06.46-.08.65-.37,3.36-5.11,75.31-7,107.37.26-.85.53-1.7.81-2.54.65-1.96,4.12-2.44,4.49,0Z"/><rect x="1200.93" y="28.24" width="120.41" height="5.58"/><path d="m1183.06,58.68h29.88c1.8,0,3.26-1.15,3.26-2.56s-1.46-2.56-3.26-2.56h-29.88c-1.8,0-3.26,1.15-3.26,2.56s1.46,2.56,3.26,2.56Z"/><path d="m1312.84,189.47c.15-.51.27-1.02.37-1.54h-.32c-.02.51-.04,1.03-.05,1.54Z"/><path d="m1334.49,187.94h-.12c-.02,2.19-.17,4.36-.47,6.51h.19c.34-2.13.45-4.33.4-6.51Z"/><path d="m1339.32,188.42c.01,1.94-.1,3.86-.37,5.73,1.13-.51,1.92-1.64,1.92-2.97,0-1.17-.62-2.19-1.55-2.77Z"/><path d="m1308.23,187.94h-89.52c-1.8,0-3.26,1.46-3.26,3.26s1.46,3.26,3.26,3.26h89.38c.03-2.17.07-4.34.14-6.51Z"/><g><path d="m1267.7,166.73h-46.47c-3.51,0-6.17-2.72-5.94-6.07l7.96-111.74c.24-3.35,3.29-6.07,6.8-6.07h28.79c3.51,0,6.17,2.72,5.94,6.07l-.64,9.03c-.14,1.94,1.4,3.52,3.44,3.52h42.4c3.51,0,6.17,2.72,5.94,6.07l-6.18,86.74c-.24,3.35-3.29,6.07-6.8,6.07h-32.39c-.11.46-.15,1.33-.18,1.89-.07,1.56-.14,3.03-1.1,3.9-.43.39-.97.6-1.57.6Zm-37.82-121.33c-2.03,0-3.8,1.58-3.94,3.52l-7.96,111.74c-.14,1.94,1.4,3.52,3.44,3.52h46.09c.11-.46.15-1.33.18-1.89.07-1.56.14-3.03,1.1-3.9.43-.39.97-.6,1.57-.6h32.77c2.03,0,3.8-1.58,3.94-3.52l6.18-86.74c.14-1.94-1.4-3.52-3.44-3.52h-42.4c-3.51,0-6.17-2.72-5.94-6.07l.64-9.03c.14-1.94-1.4-3.52-3.44-3.52h-28.79Z"/><path d="m1304.95,74.42h-72.77c-1.11,0-1.95-.86-1.87-1.92s1.04-1.92,2.15-1.92h72.77c1.11,0,1.95.86,1.87,1.92s-1.04,1.92-2.15,1.92Z"/><g><path d="m1304.44,81.62h-72.77c-.65,0-1.14-.5-1.09-1.12s.61-1.12,1.25-1.12h72.77c.65,0,1.14.5,1.09,1.12s-.61,1.12-1.25,1.12Z"/><path d="m1303.98,88.01h-72.77c-.65,0-1.14-.5-1.09-1.12s.61-1.12,1.25-1.12h72.77c.65,0,1.14.5,1.09,1.12s-.61,1.12-1.25,1.12Z"/><path d="m1303.53,94.4h-72.77c-.65,0-1.14-.5-1.09-1.12s.61-1.12,1.25-1.12h72.77c.65,0,1.14.5,1.09,1.12s-.61,1.12-1.25,1.12Z"/><path d="m1303.07,100.79h-72.77c-.65,0-1.14-.5-1.09-1.12s.61-1.12,1.25-1.12h72.77c.65,0,1.14.5,1.09,1.12s-.61,1.12-1.25,1.12Z"/></g><path d="m1302.44,109.58h-72.77c-1.11,0-1.95-.86-1.87-1.92s1.04-1.92,2.15-1.92h72.77c1.11,0,1.95.86,1.87,1.92s-1.04,1.92-2.15,1.92Z"/></g><g><line class="cls-3" x1="1362.06" y1="62.64" x2="1362.06" y2="16"/><line class="cls-3" x1="1342.53" y1="62.64" x2="1342.53" y2="16"/></g><path d="m1355.4,171.3l-6.14,2.15c1.45,4.12.77,8.46-1.8,11.61-1.37,1.68-4.11,2.63-8.15,2.83.04,2.22-.08,4.4-.41,6.53,6.43-.2,10.88-1.92,13.59-5.24,4.02-4.92,5.1-11.6,2.9-17.88Z"/><path d="m1308.92,169.12h-71.31c-1.8,0-3.26,1.46-3.26,3.26s1.46,3.26,3.26,3.26h71.09c.09-2.17.16-4.34.22-6.51Z"/><path d="m1352.33,169.12h-13.72c.89.5,1.44,1.48,1.12,2.6-.38,1.3-.77,2.61-1.2,3.91h13.81c1.8,0,3.26-1.46,3.26-3.26s-1.46-3.26-3.26-3.26Z"/><path class="cls-2" d="m1327.68,150.42c.18,1.19.33,2.38.46,3.57.13-.07.28-.13.43-.17,1.03-1.43,3.66-1.57,4.13.61.97,4.45,2.34,9.3,3.58,14.3.4,0,.8.02,1.2.05,1.47.11,2.69,1.4,2.24,2.94-.5,1.73-1.03,3.46-1.63,5.18,1,5.34,1.55,10.7,1.03,15.8h51.45l-10.23-130.07h-56.08l-7.29,92.7c1.27-.92,3.24-.75,3.69,1.09.09.37.17.75.26,1.12.03.04.05.08.08.12.69-2.43,1.41-4.86,2.2-7.26.65-1.96,4.12-2.44,4.49,0Z"/><path class="cls-2" d="m1334.38,185.49s-.02.03-.02.05c.07,2.41,0,4.8-.24,7.17h.21c.24-2.39.23-4.82.05-7.22Z"/><polygon class="cls-2" points="1248.35 146.18 1253.53 153.6 1260.39 147.86 1260.39 202.01 1311.43 202.01 1311.43 157.83 1333.05 157.83 1333.05 202.01 1350.43 202.01 1350.43 147.86 1357.29 153.6 1362.48 146.18 1305.29 101.68 1284.08 118.35 1284.08 100.64 1272.35 100.64 1272.35 127.36 1248.35 146.18"/><rect class="cls-2" x="1270.44" y="152.25" width="28.39" height="24.86"/><line class="cls-4" x1="1272.22" y1="47.48" x2="1313" y2="47.86"/><line class="cls-4" x1="1234.36" y1="53.57" x2="1251.18" y2="53.57"/></g><g><path class="cls-1" d="m1380.56,62.96h-45.64c.62-9.18,1.06-15.4,1.17-16.33.02-.17.04-.35.07-.56.34-2.74,1.06-8.44-2.77-12.78-2.54-2.87-6.51-4.45-11.82-4.69v-.04h-1.5s0,0,0,0h0s-118.9,0-118.9,0c-15.58,0-21.13,14.05-21.13,27.19h.13c-.08.22-.13.46-.13.7,0,1.41,1.46,2.56,3.26,2.56h26.49c-2.09,30.58-6.83,104.01-6.83,109.18,0,.93-.16,2.28-.33,3.71-.64,5.45-1.52,12.92,3.05,18.06,2.84,3.2,7.31,4.82,13.28,4.82,0,0,0,0,0,0h41.68v7.56h51.04v-44.18h21.61v44.18h17.39v-9.3h40.13l-10.23-130.07Z"/><path d="m1218.71,194.45c6.05,0,11.56-2.84,15.92-8.21,3.81-4.68,5.7-9.99,6.2-13.39l-6.44-.95c-.8,5.42-6.38,16.03-15.68,16.03-4.03,0-6.86-.89-8.41-2.64-2.62-2.95-1.97-8.51-1.44-12.97.19-1.62.37-3.16.37-4.46,0-6.38,7.27-117.37,7.74-121.56.02-.17.04-.35.07-.56.34-2.74,1.06-8.44-2.77-12.78-2.77-3.14-7.25-4.73-13.32-4.73-15.58,0-21.13,14.05-21.13,27.19h6.51c0-6.22,1.42-20.68,14.62-20.68,2.83,0,6.6.44,8.44,2.53,1.89,2.14,1.45,5.6,1.2,7.66-.03.24-.06.46-.08.65-.47,4.21-7.77,115.85-7.78,122.27,0,.93-.16,2.28-.33,3.71-.64,5.45-1.52,12.92,3.05,18.06,2.84,3.2,7.31,4.82,13.28,4.82Z"/><path d="m1327.68,150.42c.18,1.19.33,2.38.46,3.57.13-.07.28-.13.43-.17.09-.12.19-.24.31-.34,1.87-31.66,6.62-103.81,6.99-107.17.02-.17.04-.35.07-.56.34-2.74,1.06-8.44-2.77-12.78-2.77-3.14-7.25-4.73-13.32-4.73l1.51,5.58c2.83,0,5.09,1.37,6.94,3.46,1.89,2.14,1.45,5.6,1.2,7.66-.03.24-.06.46-.08.65-.37,3.36-5.11,75.31-7,107.37.26-.85.53-1.7.81-2.54.65-1.96,4.12-2.44,4.49,0Z"/><rect x="1200.93" y="28.24" width="120.41" height="5.58"/><path d="m1183.06,58.68h29.88c1.8,0,3.26-1.15,3.26-2.56s-1.46-2.56-3.26-2.56h-29.88c-1.8,0-3.26,1.15-3.26,2.56s1.46,2.56,3.26,2.56Z"/><path d="m1312.84,189.47c.15-.51.27-1.02.37-1.54h-.32c-.02.51-.04,1.03-.05,1.54Z"/><path d="m1334.49,187.94h-.12c-.02,2.19-.17,4.36-.47,6.51h.19c.34-2.13.45-4.33.4-6.51Z"/><path d="m1339.32,188.42c.01,1.94-.1,3.86-.37,5.73,1.13-.51,1.92-1.64,1.92-2.97,0-1.17-.62-2.19-1.55-2.77Z"/><path d="m1308.23,187.94h-89.52c-1.8,0-3.26,1.46-3.26,3.26s1.46,3.26,3.26,3.26h89.38c.03-2.17.07-4.34.14-6.51Z"/><g><path d="m1267.7,166.73h-46.47c-3.51,0-6.17-2.72-5.94-6.07l7.96-111.74c.24-3.35,3.29-6.07,6.8-6.07h28.79c3.51,0,6.17,2.72,5.94,6.07l-.64,9.03c-.14,1.94,1.4,3.52,3.44,3.52h42.4c3.51,0,6.17,2.72,5.94,6.07l-6.18,86.74c-.24,3.35-3.29,6.07-6.8,6.07h-32.39c-.11.46-.15,1.33-.18,1.89-.07,1.56-.14,3.03-1.1,3.9-.43.39-.97.6-1.57.6Zm-37.82-121.33c-2.03,0-3.8,1.58-3.94,3.52l-7.96,111.74c-.14,1.94,1.4,3.52,3.44,3.52h46.09c.11-.46.15-1.33.18-1.89.07-1.56.14-3.03,1.1-3.9.43-.39.97-.6,1.57-.6h32.77c2.03,0,3.8-1.58,3.94-3.52l6.18-86.74c.14-1.94-1.4-3.52-3.44-3.52h-42.4c-3.51,0-6.17-2.72-5.94-6.07l.64-9.03c.14-1.94-1.4-3.52-3.44-3.52h-28.79Z"/><path d="m1304.95,74.42h-72.77c-1.11,0-1.95-.86-1.87-1.92s1.04-1.92,2.15-1.92h72.77c1.11,0,1.95.86,1.87,1.92s-1.04,1.92-2.15,1.92Z"/><g><path d="m1304.44,81.62h-72.77c-.65,0-1.14-.5-1.09-1.12s.61-1.12,1.25-1.12h72.77c.65,0,1.14.5,1.09,1.12s-.61,1.12-1.25,1.12Z"/><path d="m1303.98,88.01h-72.77c-.65,0-1.14-.5-1.09-1.12s.61-1.12,1.25-1.12h72.77c.65,0,1.14.5,1.09,1.12s-.61,1.12-1.25,1.12Z"/><path d="m1303.53,94.4h-72.77c-.65,0-1.14-.5-1.09-1.12s.61-1.12,1.25-1.12h72.77c.65,0,1.14.5,1.09,1.12s-.61,1.12-1.25,1.12Z"/><path d="m1303.07,100.79h-72.77c-.65,0-1.14-.5-1.09-1.12s.61-1.12,1.25-1.12h72.77c.65,0,1.14.5,1.09,1.12s-.61,1.12-1.25,1.12Z"/></g><path d="m1302.44,109.58h-72.77c-1.11,0-1.95-.86-1.87-1.92s1.04-1.92,2.15-1.92h72.77c1.11,0,1.95.86,1.87,1.92s-1.04,1.92-2.15,1.92Z"/></g><g><line class="cls-3" x1="1362.06" y1="62.64" x2="1362.06" y2="16"/><line class="cls-3" x1="1342.53" y1="62.64" x2="1342.53" y2="16"/></g><path d="m1355.4,171.3l-6.14,2.15c1.45,4.12.77,8.46-1.8,11.61-1.37,1.68-4.11,2.63-8.15,2.83.04,2.22-.08,4.4-.41,6.53,6.43-.2,10.88-1.92,13.59-5.24,4.02-4.92,5.1-11.6,2.9-17.88Z"/><path d="m1308.92,169.12h-71.31c-1.8,0-3.26,1.46-3.26,3.26s1.46,3.26,3.26,3.26h71.09c.09-2.17.16-4.34.22-6.51Z"/><path d="m1352.33,169.12h-13.72c.89.5,1.44,1.48,1.12,2.6-.38,1.3-.77,2.61-1.2,3.91h13.81c1.8,0,3.26-1.46,3.26-3.26s-1.46-3.26-3.26-3.26Z"/><path class="cls-2" d="m1327.68,150.42c.18,1.19.33,2.38.46,3.57.13-.07.28-.13.43-.17,1.03-1.43,3.66-1.57,4.13.61.97,4.45,2.34,9.3,3.58,14.3.4,0,.8.02,1.2.05,1.47.11,2.69,1.4,2.24,2.94-.5,1.73-1.03,3.46-1.63,5.18,1,5.34,1.55,10.7,1.03,15.8h51.45l-10.23-130.07h-56.08l-7.29,92.7c1.27-.92,3.24-.75,3.69,1.09.09.37.17.75.26,1.12.03.04.05.08.08.12.69-2.43,1.41-4.86,2.2-7.26.65-1.96,4.12-2.44,4.49,0Z"/><path class="cls-2" d="m1334.38,185.49s-.02.03-.02.05c.07,2.41,0,4.8-.24,7.17h.21c.24-2.39.23-4.82.05-7.22Z"/><polygon class="cls-2" points="1248.35 146.18 1253.53 153.6 1260.39 147.86 1260.39 202.01 1311.43 202.01 1311.43 157.83 1333.05 157.83 1333.05 202.01 1350.43 202.01 1350.43 147.86 1357.29 153.6 1362.48 146.18 1305.29 101.68 1284.08 118.35 1284.08 100.64 1272.35 100.64 1272.35 127.36 1248.35 146.18"/><rect class="cls-2" x="1270.44" y="152.25" width="28.39" height="24.86"/><line class="cls-4" x1="1272.22" y1="47.48" x2="1313" y2="47.86"/></g></g><g id="Layer_6"><text class="cls-16" transform="translate(1238.6 65.32)"><tspan x="0" y="0">$</tspan></text></g></g></svg>