<?xml version="1.0" encoding="UTF-8"?><svg id="Layer_1" xmlns="http://www.w3.org/2000/svg" viewBox="0 0 507.96 517.86"><defs><style>.cls-1,.cls-2{fill:#fff;}.cls-2,.cls-3{stroke-linejoin:round;}.cls-2,.cls-3,.cls-4{stroke:#000;}.cls-2,.cls-4{stroke-width:15px;}.cls-3{stroke-linecap:round;stroke-width:6px;}.cls-3,.cls-4{fill:none;}.cls-4{stroke-miterlimit:10;}</style></defs><path class="cls-1" d="m456.64,153.28h-98.13c1.34-19.73,2.28-33.11,2.51-35.11.04-.36.09-.76.15-1.2.74-5.89,2.28-18.14-5.96-27.48-5.45-6.18-14-9.56-25.41-10.09v-.08h-3.23s0,0,0,0h0s-255.64,0-255.64,0c-33.49,0-45.43,30.2-45.43,58.46h.27c-.17.48-.27.98-.27,1.5,0,3.04,3.13,5.5,7,5.5h56.94c-4.49,65.74-14.68,223.61-14.69,234.73,0,1.99-.34,4.9-.71,7.97-1.38,11.73-3.27,27.79,6.55,38.83,6.12,6.88,15.72,10.36,28.55,10.36,0,0,0,0,0,0h89.62v16.26h109.74v-95h46.47v95h37.38v-20h86.29l-22-279.65Z"/><path d="m108.65,435.97c13,0,24.84-6.1,34.24-17.65,8.19-10.07,12.26-21.47,13.33-28.78l-13.85-2.04c-1.71,11.64-13.72,34.47-33.72,34.47-8.66,0-14.74-1.91-18.09-5.67-5.64-6.34-4.24-18.29-3.11-27.89.41-3.49.8-6.79.8-9.59.02-13.71,15.64-252.35,16.64-261.35.04-.36.09-.76.15-1.2.74-5.89,2.28-18.14-5.96-27.48-5.96-6.75-15.59-10.17-28.64-10.17-33.49,0-45.43,30.2-45.43,58.46h14c0-13.37,3.06-44.46,31.43-44.46,6.09,0,14.18.94,18.15,5.44,4.06,4.6,3.13,12.04,2.57,16.48-.06.51-.12.98-.17,1.4-1,9.05-16.71,249.08-16.72,262.88,0,1.99-.34,4.9-.71,7.97-1.38,11.73-3.27,27.79,6.55,38.83,6.12,6.88,15.72,10.36,28.55,10.36Z"/><path d="m342.94,341.31c.38,2.56.7,5.12.99,7.68.29-.16.59-.29.92-.37.19-.27.42-.51.66-.73,4.01-68.07,14.23-223.19,15.03-230.42.04-.36.09-.76.15-1.2.74-5.89,2.28-18.14-5.96-27.48-5.96-6.75-15.59-10.17-28.64-10.17l3.24,12c6.09,0,10.95,2.94,14.91,7.44,4.06,4.6,3.13,12.04,2.57,16.48-.06.51-.12.98-.17,1.4-.8,7.23-10.99,161.91-15.06,230.84.56-1.83,1.14-3.65,1.73-5.46,1.39-4.22,8.86-5.25,9.64,0Z"/><rect x="70.43" y="78.62" width="258.88" height="12"/><path d="m32,144.08h64.24c3.87,0,7-2.46,7-5.5s-3.13-5.5-7-5.5H32c-3.87,0-7,2.46-7,5.5s3.13,5.5,7,5.5Z"/><path d="m311.04,425.28c.32-1.09.58-2.2.8-3.31h-.69c-.03,1.1-.08,2.21-.11,3.31Z"/><path d="m357.59,421.97h-.25c-.05,4.71-.36,9.38-1.01,14h.4c.73-4.59.96-9.3.85-14Z"/><path d="m367.96,423.02c.02,4.17-.22,8.29-.8,12.32,2.43-1.1,4.12-3.54,4.12-6.37,0-2.52-1.33-4.71-3.32-5.95Z"/><path d="m301.12,421.97H108.65c-3.87,0-7,3.13-7,7s3.13,7,7,7h192.17c.06-4.67.16-9.33.3-14Z"/><g><path d="m213.98,376.38h-99.9c-7.55,0-13.27-5.86-12.76-13.05l17.12-240.25c.51-7.2,7.07-13.05,14.62-13.05h61.91c7.55,0,13.27,5.86,12.76,13.05l-1.38,19.41c-.3,4.17,3.02,7.56,7.39,7.56h91.15c7.55,0,13.27,5.86,12.76,13.05l-13.29,186.49c-.51,7.2-7.07,13.05-14.62,13.05h-69.63c-.24.99-.33,2.86-.39,4.06-.16,3.35-.3,6.51-2.36,8.39-.93.85-2.09,1.29-3.37,1.29ZM132.66,115.52c-4.37,0-8.17,3.39-8.47,7.56l-17.12,240.25c-.3,4.17,3.02,7.56,7.39,7.56h99.08c.24-.99.33-2.86.39-4.06.16-3.35.3-6.51,2.36-8.39.93-.85,2.09-1.29,3.37-1.29h70.45c4.37,0,8.17-3.39,8.47-7.56l13.29-186.49c.3-4.17-3.02-7.56-7.39-7.56h-91.15c-7.55,0-13.27-5.86-12.76-13.05l1.38-19.41c.3-4.17-3.02-7.56-7.39-7.56h-61.91Z"/><path d="m294.07,177.92h-156.46c-2.39,0-4.19-1.85-4.03-4.12s2.23-4.12,4.62-4.12h156.46c2.39,0,4.19,1.85,4.03,4.12s-2.23,4.12-4.62,4.12Z"/><g><path d="m292.97,193.39h-156.46c-1.39,0-2.45-1.08-2.35-2.4s1.3-2.4,2.69-2.4h156.46c1.39,0,2.45,1.08,2.35,2.4s-1.3,2.4-2.69,2.4Z"/><path d="m291.99,207.13h-156.46c-1.39,0-2.45-1.08-2.35-2.4s1.3-2.4,2.69-2.4h156.46c1.39,0,2.45,1.08,2.35,2.4s-1.3,2.4-2.69,2.4Z"/><path d="m291.01,220.87h-156.46c-1.39,0-2.45-1.08-2.35-2.4s1.3-2.4,2.69-2.4h156.46c1.39,0,2.45,1.08,2.35,2.4-.09,1.33-1.3,2.4-2.69,2.4Z"/><path d="m290.03,234.61h-156.46c-1.39,0-2.45-1.08-2.35-2.4s1.3-2.4,2.69-2.4h156.46c1.39,0,2.45,1.08,2.35,2.4s-1.3,2.4-2.69,2.4Z"/></g><path d="m288.69,253.51h-156.46c-2.39,0-4.19-1.85-4.03-4.12s2.23-4.12,4.62-4.12h156.46c2.39,0,4.19,1.85,4.03,4.12s-2.23,4.12-4.62,4.12Z"/></g><g><line class="cls-4" x1="416.87" y1="152.59" x2="416.87" y2="52.31"/><line class="cls-4" x1="374.87" y1="152.59" x2="374.87" y2="52.31"/></g><path d="m402.54,386.21l-13.21,4.63c3.11,8.87,1.67,18.2-3.86,24.96-2.95,3.61-8.83,5.65-17.51,6.08.08,4.76-.18,9.46-.87,14.05,13.82-.43,23.4-4.13,29.23-11.27,8.64-10.57,10.97-24.95,6.23-38.45Z"/><path d="m302.61,381.52h-153.32c-3.87,0-7,3.13-7,7s3.13,7,7,7h152.84c.18-4.67.35-9.33.48-14Z"/><path d="m395.93,381.52h-29.51c1.91,1.08,3.09,3.19,2.4,5.59-.81,2.8-1.67,5.61-2.58,8.41h29.69c3.87,0,7-3.13,7-7s-3.13-7-7-7Z"/><path class="cls-2" d="m342.94,341.31c.38,2.56.7,5.12.99,7.68.29-.16.59-.29.92-.37,2.21-3.08,7.86-3.38,8.88,1.32,2.08,9.57,5.02,19.99,7.7,30.74.86.01,1.73.04,2.58.11,3.16.23,5.78,3.02,4.82,6.33-1.07,3.71-2.22,7.44-3.5,11.14,2.15,11.48,3.32,23,2.22,33.98h110.61l-22-279.65h-120.57l-15.68,199.31c2.72-1.97,6.97-1.61,7.93,2.35.19.8.37,1.61.55,2.41.06.08.12.17.18.25,1.49-5.23,3.03-10.45,4.73-15.61,1.39-4.22,8.86-5.25,9.64,0Z"/><path class="cls-2" d="m357.34,416.72s-.04.07-.05.1c.15,5.18,0,10.32-.51,15.42h.45c.52-5.13.48-10.37.12-15.52Z"/><polygon class="cls-2" points="172.38 332.2 183.52 348.15 198.27 335.81 198.27 452.24 308.01 452.24 308.01 357.24 354.48 357.24 354.48 452.24 391.86 452.24 391.86 335.81 406.61 348.15 417.76 332.2 294.81 236.52 249.2 272.36 249.2 234.29 223.99 234.29 223.99 291.74 172.38 332.2"/><rect class="cls-2" x="219.88" y="345.24" width="61.04" height="53.45"/><line class="cls-3" x1="223.7" y1="119.99" x2="311.38" y2="120.8"/><line class="cls-3" x1="142.29" y1="133.08" x2="178.47" y2="133.08"/></svg>