<?xml version="1.0" encoding="UTF-8"?><svg xmlns="http://www.w3.org/2000/svg" xmlns:xlink="http://www.w3.org/1999/xlink" viewBox="0 0 4189 218"><defs><style>.cls-1{fill:#fff;}.cls-2{letter-spacing:-.04em;}.cls-3,.cls-4{fill:#587594;}.cls-5{isolation:isolate;}.cls-6{letter-spacing:.02em;}.cls-7{fill:#896da2;}.cls-8{letter-spacing:0em;}.cls-4,.cls-9{opacity:.42;}.cls-4,.cls-9,.cls-10{mix-blend-mode:multiply;}.cls-11{letter-spacing:-.04em;}.cls-12,.cls-10{fill:#759ac1;}.cls-13{fill:#272727;}.cls-14{font-family:RobotoCondensed-Regular, 'Roboto Condensed';font-size:60px;}.cls-15{opacity:.76;}.cls-16{fill:#d15050;}.cls-17{font-family:IDAutomationHC39S, IDAutomationHC39S;font-size:154.5px;}.cls-18{letter-spacing:-.02em;}.cls-19{fill:#3074b1;}.cls-20{letter-spacing:0em;}.cls-10{opacity:.19;}.cls-21{letter-spacing:0em;}</style><symbol id="New_Symbol" viewBox="0 0 45 45"><g><rect class="cls-1" x=".5" y=".5" width="44" height="44"/><path d="m44,1v43H1V1h43m1-1H0v45h45V0h0Z"/></g></symbol></defs><g class="cls-5"><g id="Layer_1" class="cls-15"><use width="45" height="45" transform="translate(1386.79 224.34) rotate(-180) scale(.95 .72)" xlink:href="#New_Symbol"/><g class="cls-9"><rect class="cls-12" x="2623.88" y="57.02" width="110.56" height="83.66"/><g><rect class="cls-13" x="2614.83" y="-44.61" width="133.33" height="100.9"/><path d="m2615.41,55.85h132.18V-44.17h-132.18V55.85m-1.16.88V-45.05h134.49V56.73h-134.49Z"/></g></g><g class="cls-9"><g><rect class="cls-3" x="1863.9" y="-75.55" width="310.4" height="234.89"/><path class="cls-3" d="m1865.25,158.32h307.7V-74.53h-307.7v232.85m-2.7,2.04V-76.57h313.1v236.93h-313.1Z"/></g></g><g class="cls-9"><g><rect class="cls-12" x="1904.24" y="54.87" width="303.04" height="229.32"/><path class="cls-12" d="m1905.55,283.19h300.4V55.87h-300.4v227.32m-2.64,1.99V53.87h305.67v231.31h-305.67Z"/></g><g><rect class="cls-12" x="1646.03" y="-144.53" width="219.61" height="166.19"/><path class="cls-12" d="m1646.99,20.94h217.71v-164.74h-217.71V20.94m-1.91,1.45v-167.63h221.52V22.39h-221.52Z"/></g><g><rect class="cls-12" x="2413.68" y="27.42" width="257.76" height="195.06"/><path class="cls-12" d="m2414.8,221.63h255.52V28.27h-255.52v193.36m-2.24,1.7V26.57h260v196.75h-260Z"/></g><g><rect class="cls-12" x="1201.31" y="209.07" width="191.44" height="144.87"/><path class="cls-12" d="m1202.14,353.31h189.78v-143.61h-189.78v143.61m-1.66,1.26v-146.13h193.11v146.13h-193.11Z"/></g><g><rect class="cls-12" x="1020.89" y="26.89" width="131.12" height="99.22"/><path class="cls-12" d="m1021.46,125.68h129.98V27.32h-129.98v98.36m-1.14.86V26.46h132.26v100.08h-132.26Z"/></g><g><rect class="cls-12" x="792.16" y="178.74" width="270.91" height="205.01"/><path class="cls-12" d="m793.34,382.86h268.56v-203.23h-268.56v203.23m-2.36,1.78v-206.79h273.27v206.79h-273.27Z"/></g><g><rect class="cls-12" x="1393.54" y="59.36" width="74.07" height="56.05"/><path class="cls-12" d="m1393.86,115.16h73.42v-55.56h-73.42v55.56m-.64.49v-56.53h74.71v56.53h-74.71Z"/></g></g><g class="cls-9"><g><g><rect class="cls-16" x="2472.54" y="108.76" width="314.38" height="237.9"/><path class="cls-16" d="m2473.91,345.63h311.65V109.79h-311.65v235.84m-2.73,2.07V107.72h317.12v239.97h-317.12Z"/></g><g><rect class="cls-16" x="2276.43" y="-67.12" width="232.95" height="176.28"/><path class="cls-16" d="m2277.44,108.39h230.92V-66.35h-230.92V108.39m-2.03,1.53V-67.88h234.97V109.93h-234.97Z"/></g><g><rect class="cls-16" x="3073.77" y="-38.43" width="228.07" height="172.59"/><path class="cls-16" d="m3074.76,133.41h226.08V-37.68h-226.08v171.08m-1.98,1.5V-39.18h230.05v174.09h-230.05Z"/></g><g><rect class="cls-16" x="2913.45" y="145.19" width="61" height="46.16"/><path class="cls-16" d="m2913.72,191.15h60.47v-45.76h-60.47v45.76m-.53.4v-46.56h61.53v46.56h-61.53Z"/></g><g><rect class="cls-16" x="1958.84" y="118.75" width="153.9" height="116.46"/><path class="cls-16" d="m1959.51,234.71h152.56v-115.45h-152.56v115.45m-1.34,1.01v-117.48h155.24v117.48h-155.24Z"/></g><g><rect class="cls-16" x="2269.42" y="191.04" width="172.07" height="130.21"/><path class="cls-16" d="m2270.17,320.69h170.57v-129.08h-170.57v129.08m-1.5,1.13v-131.34h173.57v131.34h-173.57Z"/></g><g><polygon class="cls-16" points="3495.15 237.35 2580.2 -146.95 2366.57 -146.95 3281.51 237.35 3495.15 237.35"/><path class="cls-16" d="m2367.49-147.65h211.78l914.95,385.7h-211.78l-914.95-385.7m-1.86,1.41l914.95,382.89h215.49l-914.95-382.89h-215.49Z"/></g></g></g><g class="cls-9"><g><g><rect class="cls-16" x="1367.2" y="98.04" width="232.95" height="176.28"/><path class="cls-16" d="m1368.21,273.55h230.92V98.81h-230.92v174.75m-2.03,1.53V97.27h234.97v177.81h-234.97Z"/></g><g><polygon class="cls-16" points="2392.61 126.73 1477.66 -246.65 1249.59 -246.65 2164.54 126.73 2392.61 126.73"/><path class="cls-16" d="m1250.58-247.4h226.08l914.95,374.88h-226.08l-914.95-374.88m-1.98,1.5l914.95,371.88h230.05l-914.95-371.88h-230.05Z"/></g><g><rect class="cls-16" x="1457.34" y="-143.46" width="213.64" height="161.67"/><path class="cls-16" d="m1458.27,17.51h211.78v-160.26h-211.78V17.51m-1.86,1.41v-163.07h215.49V18.91h-215.49Z"/></g></g></g><g class="cls-9"><g><g><rect class="cls-19" x="1365.63" y="151.76" width="146.97" height="111.22"/><path class="cls-19" d="m1366.27,262.49h145.69v-110.25h-145.69v110.25m-1.28.97v-112.18h148.25v112.18h-148.25Z"/></g><g><rect class="cls-19" x="1596.62" y="-8.11" width="128.84" height="97.5"/><path class="cls-19" d="m1597.18,88.97h127.72V-7.68h-127.72v96.65m-1.12.85V-8.53h129.96v98.34h-129.96Z"/></g><g><rect class="cls-19" x="1714.23" y="99.15" width="131.95" height="99.85"/><path class="cls-19" d="m1714.8,198.57h130.8v-98.98h-130.8v98.98m-1.15.87v-100.72h133.09v100.72h-133.09Z"/></g><g><rect class="cls-19" x="1832.44" y="43.57" width="276.44" height="209.19"/><path class="cls-19" d="m1833.64,251.86h274.04V44.48h-274.04v207.38m-2.4,1.82V42.66h278.85v211.01h-278.85Z"/></g><g><rect class="cls-19" x="2105.59" y="14.49" width="223.58" height="169.19"/><path class="cls-19" d="m2106.56,182.95h221.63V15.23h-221.63v167.72m-1.94,1.47V13.76h225.52v170.66h-225.52Z"/></g><g><rect class="cls-19" x="3304.96" y="71.73" width="61.8" height="46.77"/><path class="cls-19" d="m3305.23,118.3h61.27v-46.36h-61.27v46.36m-.54.41v-47.18h62.34v47.18h-62.34Z"/></g><g><rect class="cls-19" x="1900.82" y="-84.77" width="206.6" height="156.34"/><path class="cls-19" d="m1901.72,70.88h204.8V-84.09h-204.8V70.88m-1.8,1.36V-85.45h208.39V72.24h-208.39Z"/></g><g><polygon class="cls-19" points="2882.42 234.24 1967.48 -214.86 1839.48 -214.86 2754.43 234.24 2882.42 234.24"/><path class="cls-19" d="m1840.04-215.28h126.89l914.95,449.94h-126.89l-914.95-449.94m-1.11.84l914.95,448.26h129.11l-914.95-448.26h-129.11Z"/></g><g><rect class="cls-19" x="1636.62" y="10.23" width="164.94" height="124.82"/><path class="cls-19" d="m1637.34,134.51h163.51V10.78h-163.51v123.73m-1.43,1.09V9.69h166.38v125.9h-166.38Z"/></g><g><polygon class="cls-19" points="2781.51 228.49 1866.56 -119.25 1604.62 -119.25 2519.57 228.49 2781.51 228.49"/><path class="cls-19" d="m1605.76-120.12h259.66l914.95,349.47h-259.66L1605.76-120.12m-2.28,1.72l914.95,346.02h264.22L1867.7-118.39h-264.22Z"/></g><g><rect class="cls-19" x="1479.55" y="-11.12" width="84.98" height="64.3"/><path class="cls-19" d="m1479.92,52.9h84.24V-10.85h-84.24v63.74m-.74.56V-11.4h85.72V53.46h-85.72Z"/></g></g></g><g class="cls-9"><g><g><rect class="cls-7" x="1727.81" y="182.41" width="162.75" height="123.16"/><path class="cls-7" d="m1728.52,305.03h161.33v-122.08h-161.33v122.08m-1.42,1.07v-124.23h164.16v124.23h-164.16Z"/></g><g><rect class="cls-7" x="1138.52" y="-126.27" width="284.02" height="214.92"/><path class="cls-7" d="m1139.75,87.72h281.55V-125.34h-281.55V87.72m-2.47,1.87V-127.21h286.49V89.58h-286.49Z"/></g><g><polygon class="cls-7" points="2275.94 75.49 1361 -285.58 1116.67 -285.58 2031.62 75.49 2275.94 75.49"/><path class="cls-7" d="m1117.74-286.39h242.2l914.95,362.68h-242.2l-914.95-362.68m-2.12,1.61L2030.56,74.69h246.45l-914.95-359.47h-246.45Z"/></g><g><rect class="cls-7" x="795.94" y="185" width="81.66" height="61.8"/><path class="cls-7" d="m796.29,246.52h80.95v-61.26h-80.95v61.26m-.71.54v-62.33h82.37v62.33h-82.37Z"/></g><g><rect class="cls-7" x="1435.25" y="20.58" width="262.4" height="198.56"/><path class="cls-7" d="m1436.39,218.28h260.11V21.44h-260.11v196.84m-2.28,1.73V19.72h264.68v200.29h-264.68Z"/></g><g><rect class="cls-7" x="1913.62" y="-66.25" width="298.17" height="225.64"/><path class="cls-7" d="m1914.92,158.41h295.58V-65.27h-295.58v223.68m-2.59,1.96V-67.23h300.77v227.6h-300.77Z"/></g><g><rect class="cls-7" x="1013.81" y="-58.4" width="217.68" height="164.73"/><path class="cls-7" d="m1014.76,105.61h215.79V-57.68h-215.79V105.61m-1.89,1.43V-59.12h219.57V107.04h-219.57Z"/></g><g><polygon class="cls-7" points="1974.52 177.84 1059.58 -177.35 807.47 -177.35 1722.42 177.84 1974.52 177.84"/><path class="cls-7" d="m808.57-178.18h249.91l914.95,356.85h-249.91L808.57-178.18m-2.19,1.66l914.95,353.53h254.3l-914.95-353.53h-254.3Z"/></g><g><polygon class="cls-7" points="1414.81 110.46 1414.81 158.53 436.34 -387.43 436.34 -435.5 1414.81 110.46"/><path class="cls-7" d="m436.61-387.64L1414.53,158.32v-47.65L436.61-435.29v47.65m-.55.42v-48.49L1415.08,110.26v48.49L436.06-387.22h0Z"/></g><g><polygon class="cls-7" points="1425.5 159.71 510.55 -264.37 349.49 -264.37 349.49 -386.25 1425.5 159.71"/><path class="cls-7" d="m350.19-264.9h159.66l914.95,425.14L350.19-385.72v120.82m-1.4,1.06v-122.94L1426.2,159.19,511.25-263.84h-162.46Z"/></g><g><polygon class="cls-7" points="1471.2 207.35 556.25 -114.41 259.98 -114.41 259.98 -338.61 1471.2 207.35"/><path class="cls-7" d="m261.27-115.39h293.69l914.95,323.71L261.27-337.64V-115.39m-2.58,1.95v-226.15L1472.49,206.37,557.54-113.44h-298.85Z"/></g><g><rect class="cls-7" x="162.12" y="-138.72" width="242.36" height="183.4"/><path class="cls-7" d="m163.18,43.89h240.26v-181.81h-240.26V43.89m-2.11,1.59v-185h244.47V45.48h-244.47Z"/></g></g></g><polyline class="cls-4" points="1748.61 -183.63 1748.61 51.2 1438.29 51.2 1438.29 -183.63"/><polyline class="cls-4" points="1785.78 -114.39 1785.78 120.44 1475.46 120.44 1475.46 -114.39"/><polyline class="cls-4" points="1439.64 50.18 1747.26 50.18 1747.26 -182.61"/><polyline class="cls-4" points="1749.96 -184.65 1749.96 52.22 1436.94 52.22 1436.94 52.22 1436.94 -184.65"/><polyline class="cls-4" points="2141.77 -194.38 2141.77 41.86 1829.59 41.86 1829.59 -194.38"/><polyline class="cls-4" points="1830.95 40.83 2140.41 40.83 2140.41 -193.35"/><polyline class="cls-4" points="2143.12 -195.41 2143.12 42.88 1828.23 42.88 1828.23 42.88 1828.23 -195.41"/><polyline class="cls-10" points="1166.22 -17.62 1166.22 38.23 1092.41 38.23 1092.41 -17.62"/><polyline class="cls-10" points="1092.73 37.99 1165.9 37.99 1165.9 -17.38"/><polyline class="cls-10" points="1166.54 -17.86 1166.54 38.47 1092.09 38.47 1092.09 38.47 1092.09 -17.86"/><polyline class="cls-10" points="1766.29 -46.88 1766.29 102.69 1568.64 102.69 1568.64 -46.88"/><polyline class="cls-10" points="1569.5 102.04 1765.44 102.04 1765.44 -46.23"/><polyline class="cls-10" points="1767.15 -47.53 1767.15 103.34 1567.78 103.34 1567.78 103.34 1567.78 -47.53"/><polyline class="cls-10" points="1993.44 -84.08 1993.44 61.7 1800.79 61.7 1800.79 -84.08"/><polyline class="cls-10" points="1801.63 61.07 1992.61 61.07 1992.61 -83.45"/><polyline class="cls-10" points="1994.28 -84.72 1994.28 62.33 1799.96 62.33 1799.96 62.33 1799.96 -84.72"/><g class="cls-9"><rect class="cls-19" x="1049.78" y="72.35" width="220.42" height="166.8"/><path class="cls-19" d="m1050.74,238.43h218.51V73.08h-218.51v165.35m-1.92,1.45V71.62h222.34v168.25h-222.34Z"/></g><g><rect class="cls-3" x="3823.7" y="184.68" width="312.18" height="236.23"/><path class="cls-3" d="m3825.05,419.89h309.46v-234.18h-309.46v234.18m-2.71,2.05v-238.29h314.89v238.29h-314.89Z"/></g></g><g id="Layer_2"><text class="cls-17" transform="translate(1175.53 52.81) scale(1.04 1)"><tspan x="0" y="0">Taxing Issues</tspan></text><text class="cls-14" transform="translate(1314.02 194.92)"><tspan x="0" y="0">Chicagoland p</tspan><tspan class="cls-20" x="337.47" y="0">r</tspan><tspan x="355.14" y="0">ope</tspan><tspan class="cls-6" x="442.94" y="0">r</tspan><tspan x="462.66" y="0">ty tax </tspan><tspan class="cls-8" x="605.65" y="0">r</tspan><tspan x="623.35" y="0">esea</tspan><tspan class="cls-8" x="735.62" y="0">r</tspan><tspan x="753.31" y="0">ch f</tspan><tspan class="cls-20" x="842.72" y="0">r</tspan><tspan x="860.39" y="0">om Cook County</tspan><tspan class="cls-18" x="1249.31" y="0"> </tspan><tspan class="cls-11" x="1261.88" y="0">T</tspan><tspan class="cls-8" x="1290.91" y="0">r</tspan><tspan x="1308.6" y="0">easu</tspan><tspan class="cls-8" x="1421.78" y="0">r</tspan><tspan x="1439.47" y="0">e</tspan><tspan class="cls-21" x="1467.57" y="0">r</tspan><tspan class="cls-2" x="1486.29" y="0">&apos;</tspan><tspan x="1494.4" y="0">s Office</tspan></text><text class="cls-17" transform="translate(1175.53 52.81) scale(1.04 1)"><tspan x="0" y="0">Taxing Issues</tspan></text></g></g></svg>