<?xml version="1.0" encoding="UTF-8"?><svg xmlns="http://www.w3.org/2000/svg" viewBox="0 0 4189 40"><defs><style>.cls-1{fill:#587594;}.cls-2{isolation:isolate;}.cls-3{fill:#896da2;}.cls-4{font-family:IDAutomationHC39S, IDAutomationHC39S;font-size:161.12px;}.cls-5{fill:#759ac1;}.cls-6{opacity:.76;}.cls-7{fill:#d15050;}.cls-8{mix-blend-mode:multiply;opacity:.42;}.cls-9{fill:#3074b1;}</style></defs><g class="cls-2"><g id="Layer_1" class="cls-6"><g class="cls-8"><rect class="cls-1" x="1103.72" y="-8.83" width="133.65" height="101.13"/><path class="cls-1" d="m1104.3,91.86h132.48V-8.39h-132.48v100.25m-1.16.88V-9.27h134.81v102.01h-134.81Z"/></g><g class="cls-8"><g><g><rect class="cls-1" x="1604.81" y="5.79" width="64.5" height="48.81"/><path class="cls-1" d="m1605.09,54.39h63.94V6h-63.94v48.38m-.56.42V5.58h65.06v49.23h-65.06Z"/></g><g><rect class="cls-1" x="2331.79" y="32.63" width="310.33" height="234.83"/><rect class="cls-1" x="2235.53" y="-15.69" width="310.33" height="234.83"/><path class="cls-1" d="m2333.14,266.44h307.63V33.65h-307.63v232.79m-2.7,2.04V31.61h313.03v236.88h-313.03Z"/></g><g><rect class="cls-1" x="2723.09" y="21.88" width="312.18" height="236.23"/><path class="cls-1" d="m2724.45,257.09h309.46V22.91h-309.46v234.18m-2.71,2.05V20.85h314.89v238.29h-314.89Z"/></g></g></g><g class="cls-8"><g><rect class="cls-5" x="1904.24" y="-226.13" width="303.04" height="229.32"/><path class="cls-5" d="m1905.55,2.19h300.4v-227.32h-300.4V2.19m-2.64,1.99v-231.31h305.67V4.19h-305.67Z"/></g><g><rect class="cls-5" x="1201.31" y="-71.93" width="191.44" height="144.87"/><path class="cls-5" d="m1202.14,72.31h189.78V-71.3h-189.78V72.31m-1.66,1.26V-72.56h193.11V73.57h-193.11Z"/></g><g><rect class="cls-5" x="792.16" y="-102.26" width="270.91" height="205.01"/><path class="cls-5" d="m793.34,101.86h268.56V-101.37h-268.56V101.86m-2.36,1.78V-103.15h273.27V103.64h-273.27Z"/></g></g><g class="cls-8"><g><g><rect class="cls-7" x="2472.54" y="-172.24" width="314.38" height="237.9"/><path class="cls-7" d="m2473.91,64.63h311.65v-235.84h-311.65V64.63m-2.73,2.07v-239.97h317.12V66.7h-317.12Z"/></g><g><rect class="cls-7" x="2269.42" y="-89.96" width="172.07" height="130.21"/><path class="cls-7" d="m2270.17,39.69h170.57V-89.39h-170.57V39.69m-1.5,1.13V-90.52h173.57V40.82h-173.57Z"/></g></g></g><g class="cls-8"><g><g><rect class="cls-7" x="1563.31" y="-7.08" width="314.38" height="237.9"/><path class="cls-7" d="m1564.68,229.79h311.65V-6.05h-311.65v235.84m-2.73,2.07V-8.12h317.12v239.97h-317.12Z"/></g><g><rect class="cls-7" x="1049.61" y="2.91" width="153.9" height="116.46"/><path class="cls-7" d="m1050.28,118.87h152.56V3.42h-152.56v115.45m-1.34,1.01V2.41h155.24v117.48h-155.24Z"/></g></g></g><g class="cls-8"><g><rect class="cls-9" x="1013.65" y="4.25" width="292.01" height="220.97"/><path class="cls-9" d="m1014.92,224.26h289.47V5.21h-289.47v219.05m-2.54,1.92V3.29h294.54v222.89h-294.54Z"/></g></g><g class="cls-8"><g><g><rect class="cls-3" x="1727.81" y="-98.59" width="162.75" height="123.16"/><path class="cls-3" d="m1728.52,24.03h161.33v-122.08h-161.33V24.03m-1.42,1.07v-124.23h164.16V25.1h-164.16Z"/></g><g><rect class="cls-3" x="1549.68" y="32.48" width="143.21" height="108.37"/><path class="cls-3" d="m1550.31,140.38h141.97V32.95h-141.97v107.43m-1.25.94V32h144.46v109.32h-144.46Z"/></g><g><rect class="cls-3" x="1798.38" y="-50.74" width="162.72" height="123.14"/><path class="cls-3" d="m1799.09,71.86h161.31V-50.21h-161.31v122.07m-1.41,1.07V-51.28h164.14v124.21h-164.14Z"/></g></g></g><g><rect class="cls-1" x="3823.7" y="-96.32" width="312.18" height="236.23"/><path class="cls-1" d="m3825.05,138.89h309.46V-95.29h-309.46v234.18m-2.71,2.05V-97.35h314.89v238.29h-314.89Z"/></g></g><g id="Layer_2"><text class="cls-4" transform="translate(1280.53 229.72)"><tspan x="0" y="0">Every PIN IS sacred</tspan></text></g></g></svg>